<?xml version="1.0" encoding="UTF-8"?>
<!DOCTYPE svg  PUBLIC '-//W3C//DTD SVG 1.1//EN'  'http://www.w3.org/Graphics/SVG/1.1/DTD/svg11.dtd'>
<svg xmlns="http://www.w3.org/2000/svg" xmlns:xlink="http://www.w3.org/1999/xlink" version="1.1">
<metadata>
Font name:				 EMS Allure
License:                 SIL Open Font License http://scripts.sil.org/OFL
Created by:              Sheldon B. Michaels
SVG font conversion by:  Windell H. Oskay, smoothed and adjusted by Ellen Wasbo
A derivative of:         Allura
Designer:                Rob Leuschke, TypeSETit
Link:                    http://www.typesetit.com
Google font page:        https://fonts.google.com/specimen/Allura
</metadata>
<defs>
<font horiz-adv-x="400.0" id="EMS_Allure_Smooth">
<font-face font-family="EMS_Allure_Smooth" units-per-em="1000.0" ascent="800.0" descent="-200.0" cap-height="500.0" x-height="300.0"/>
<missing-glyph horiz-adv-x="400.0"/>
<glyph unicode=" " glyph-name="space" horiz-adv-x="400.0"/>
<glyph unicode="!" glyph-name="exclam" d="M 410.67 665 L 369.67 592 L 261.67 362 L 198.67 214 M 170.67 63 L 148.67 40.83" horiz-adv-x="259.0"/>
<glyph unicode="&quot;" glyph-name="quotedbl" d="M 94.5 548 L 78.83 403 M 233 548 L 211 400" horiz-adv-x="302.0"/>
<glyph unicode="#" glyph-name="numbersign" d="M 410 743 L 167 40.83 M 693 737 L 460 37.83 M 94.5 469 L 825 472 M 12.67 192 L 753 192" horiz-adv-x="859.33"/>
<glyph unicode="$" glyph-name="dollar" d="M 372 403 C 415.83 431 462.5 464.83 476.67 518 C 481 641.33 364.17 618.83 268.83 598 C 173.5 577.17 42.83 449.33 111 349.67 C 132 306.83 313.17 163.17 257.67 123.67 C 201.5 90.83 112.5 98.17 63 129 M 432 658 C 389 626.83 362.67 579 334.5 535 C 290.17 458.5 250.83 379.33 208.33 301.83 C 158.33 206.17 110.33 109.5 63 12.67" horiz-adv-x="592.0"/>
<glyph unicode="%" glyph-name="percent" d="M 189 649 C 91.33 626 58.33 569.33 74.33 490 C 83.83 443.33 133.67 434.67 169.33 455.17 C 228 489 257.17 536.33 250.83 602.17 C 248.33 628.17 226 636.33 205 646 C 293.67 610 389.67 618.17 476 662 C 321.5 457.5 176.17 221.17 56.67 18.83 M 306 202 C 262 159.83 237 100 255 59.83 C 282 -0.17 354.33 22.17 401.83 68.67 C 439.5 105.83 459.33 152.33 441 202 C 417.67 265.33 347 241.17 306 202 Z" horiz-adv-x="548.0"/>
<glyph unicode="&amp;" glyph-name="ampersand" d="M 602 658 C 547.17 639.17 526.5 560.67 526 520 M 548 621 C 487 727.83 307.17 690.83 276.33 633.5 C 236.33 559 293.33 439.67 392.83 342 C 208.17 326.17 44.33 319 40.83 145 C 37.17 -31.83 291.67 -39.83 450 25.17 C 678.5 119 672.5 296.17 621 375 M 728 491 C 766.67 353.67 234.67 322.5 372 110" horiz-adv-x="828.0"/>
<glyph unicode="'" glyph-name="quotesingle" d="M 97.7 551 L 78.8 400" horiz-adv-x="173.0"/>
<glyph unicode="(" glyph-name="parenleft" d="M 501 684 C 123.2 533.5 -68.2 229.5 66.2 -161" horiz-adv-x="447.0"/>
<glyph unicode=")" glyph-name="parenright" d="M 372 684 C 555.7 356.83 317.3 -65.17 -50.3 -158" horiz-adv-x="617.0"/>
<glyph unicode="*" glyph-name="asterisk" d="M 236 602 C 283.8 573.67 347.3 374 400 261 M 457 617 L 186 271 M 554 438 L 117 428" horiz-adv-x="762.0"/>
<glyph unicode="+" glyph-name="plus" d="M 101 243 L 586 243 M 435 432 L 249 15.83" horiz-adv-x="731.0"/>
<glyph unicode="," glyph-name="comma" d="M 104 56.67 C 158.8 22.83 68.5 -57.5 28.3 -117" horiz-adv-x="211.0"/>
<glyph unicode="-" glyph-name="hyphen" d="M 161 236 L 387 243" horiz-adv-x="444.0"/>
<glyph unicode="." glyph-name="period" d="M 145 63 L 129 37.83" horiz-adv-x="224.0"/>
<glyph unicode="/" glyph-name="slash" d="M 482 655 C 318.7 451.5 163.5 243 25.2 22" horiz-adv-x="564.0"/>
<glyph unicode="0" glyph-name="zero" d="M 466 583 C 348 665.67 188.5 544 132 463 C 15.7 296.5 9 1.17 230 -6.33 C 424.7 -12.83 572 184.83 608 384 C 636.2 540 543.2 687 350 668" horiz-adv-x="662.0"/>
<glyph unicode="1" glyph-name="one" d="M 170 450 C 248.7 500.33 302.5 571.5 356 646 L 384 646 C 307.2 421.67 175.3 250.5 145 37.83 M 6.3 9.5 C 104 42.17 185.5 38.67 284 34.67" horiz-adv-x="378.0"/>
<glyph unicode="2" glyph-name="two" d="M 198 491 C 179.5 585.17 375.3 646.17 472 643 C 614.3 636 718 551 617 432 C 442.2 226 259.3 150.33 56.7 15.83 C 71.8 192.17 330.2 17.5 403 -3.17 C 473.2 -23.17 593.3 4.83 630 85.17" horiz-adv-x="702.0"/>
<glyph unicode="3" glyph-name="three" d="M 239 498 C 252.2 617.17 363.5 655.33 479 643 C 694 620.17 636.8 407.5 438 378 C 393.8 371.5 353.2 361.67 312 346 C 296 354.67 296.7 367.33 293 384 C 458 369.33 605.8 385.17 576 208 C 551.7 63.83 378.3 -22 225.7 -16 C 122.7 -12 54 42.33 101 132" horiz-adv-x="665.0"/>
<glyph unicode="4" glyph-name="four" d="M 243 -6.33 C 295.2 226 413.5 452 504 636 C 436.8 575.17 349.5 501.33 255 434.5 C 160.5 367.67 53.2 323.33 -3.2 224 C 200.2 361.5 397 142.33 554 337" horiz-adv-x="558.0"/>
<glyph unicode="5" glyph-name="five" d="M 318 608 C 261.7 529 212 446.17 164 362 C 283.5 444 512.7 487 548 321 C 591.5 115.83 347.7 3 192 -3.17 C 58.3 -8.5 -75.3 51.5 -15.8 154 M 280 614 C 404 624 529.3 640.17 652 624" horiz-adv-x="643.0"/>
<glyph unicode="6" glyph-name="six" d="M 551 507 C 610.5 729.67 295.2 617.17 214 520 C 119.3 406.67 34.8 246.33 79.3 100.5 C 125.8 -52.5 366.7 -8.33 454 154 C 559.7 350.17 358.7 469.33 167.8 277" horiz-adv-x="602.0"/>
<glyph unicode="7" glyph-name="seven" d="M 116 507 C 194.2 766.17 468.8 557.17 617 633 C 523 547.17 286 244.5 184.5 127.33 C 161 100.17 148.2 35.83 113 25.17" horiz-adv-x="501.0"/>
<glyph unicode="8" glyph-name="eight" d="M 400 662 C 184.3 640.33 105.8 400.17 359 375 C 500.8 360.83 516.5 202.33 444 145 C 374.7 90.17 255.7 15.5 148 19.67 C 40.5 23.83 -5.8 103.83 75.3 206 C 107.3 246.17 167 284 228.5 321.67 C 289.8 359.33 371.8 402.17 422 428 C 579.8 509.17 679.7 690.17 400 662 Z" horiz-adv-x="592.0"/>
<glyph unicode="9" glyph-name="nine" d="M 443.5 375.17 C 161.7 152.17 57.5 399.5 176 549 C 273.7 672 484 723.83 539 558 C 600.2 373.67 481 222.67 359 110 C 246.2 5.83 27.3 -74.67 37.8 158" horiz-adv-x="605.0"/>
<glyph unicode=":" glyph-name="colon" d="M 195 252 L 183 230 M 139 63 L 126 40.83" horiz-adv-x="246.0"/>
<glyph unicode=";" glyph-name="semicolon" d="M 189 252 L 173 230 M 101 59.83 C 176.8 48.33 60.5 -62.83 31.5 -101" horiz-adv-x="224.0"/>
<glyph unicode="&lt;" glyph-name="less" d="M 391 561 L 101 277 C 154.2 206.17 206 135.33 252 59.83" horiz-adv-x="450.0"/>
<glyph unicode="=" glyph-name="equal" d="M 189 318 L 573 328 M 145 139 C 220.7 174.17 415.5 152.17 548 151" horiz-adv-x="646.0"/>
<glyph unicode="&gt;" glyph-name="greater" d="M 252 554 C 288.5 485 336.5 429.5 391 375 C 289.2 276.17 187 177.5 85 78.83" horiz-adv-x="472.0"/>
<glyph unicode="?" glyph-name="question" d="M 139 561 C 170.2 674.33 337 715.5 413 693 C 549.7 652.5 500.3 500.33 422 413 C 353.7 336.83 247 321.67 202 205 M 129 56.67 L 107 31.5" horiz-adv-x="564.0"/>
<glyph unicode="@" glyph-name="at" d="M 602 517 C 514.5 565.33 460.2 552.5 381 501 C 294.3 444.67 187.8 337.67 193 250 C 196.8 185.67 260.3 170.67 309 202 C 409.8 266.83 476.8 371.67 554 463 L 576 463 C 538.5 384 471 223 539 187 C 613.3 147.67 764 336.67 788 447 C 847.7 721 617.8 760.5 406 709 C 180.7 654.33 -48.8 377.67 16.3 164 C 80.3 -45.83 403.3 -49 580 34.67 C 691.8 87.5 864 194.33 816 378" horiz-adv-x="895.0"/>
<glyph unicode="A" glyph-name="A" d="M -9.5 40.83 C 70.3 -165 294.8 -29.67 406 78.83 C 622.8 290.5 746.2 485.83 939 699 L 958 706 C 840.2 506 754 248.5 762 99.67 C 773 -101 960.7 95 1030.2 180 M 129 161 C 118.3 298.67 204.2 354.17 324 334 C 497.2 304.83 900 207.67 958 293" horiz-adv-x="1029.75"/>
<glyph unicode="B" glyph-name="B" d="M 94.5 328 C -45 400.33 6.3 517 117 583 C 273.8 676.5 762.2 815.33 819 627 C 871 454.83 604 423.67 476.3 405 C 659.8 298.33 790.7 159 605 12.67 C 494.3 -74.67 277 -59.33 267 98.5 C 229.3 69.83 187.8 -11.67 162.7 8.33 C 122.7 40 292.7 338.17 324 406 C 369.2 504.83 417.5 595.5 497.2 571.67" horiz-adv-x="860.0"/>
<glyph unicode="C" glyph-name="C" d="M 296 362 C 458.5 372.5 751.5 564.83 639 680 C 525 796.67 198 567.67 110 419 C -50.5 147.83 5.8 -71 346 -15.83 C 478.7 5.67 576.7 93.83 668 189" horiz-adv-x="670.0"/>
<glyph unicode="D" glyph-name="D" d="M 582.37 554 C 456.87 524.83 422.37 441 384.37 334 C 337.17 201.33 275.67 72.17 195.37 -44.17 C 105.87 -20.83 137.07 150.67 144.37 208 C 190.07 75.67 323.37 3.67 454.37 -1.5 C 772.07 -13.83 1043.67 246.67 953.07 532 C 878.37 766.67 446.87 726.33 193.37 614 C 49.37 550.17 -67.13 375.83 119.37 293" horiz-adv-x="1047.03"/>
<glyph unicode="E" glyph-name="E" d="M 662 580 L 668 504 C 613.5 697.67 438.7 821.33 332 615 C 275.2 505 497.2 235.33 504 306 L 507 337 C 511.2 379.33 273.5 359.5 180 309 C -104.5 155.17 -10.7 -61.67 318 -47.17 C 520.3 -38.33 875 98.67 806 252" horiz-adv-x="848.23"/>
<glyph unicode="F" glyph-name="F" d="M 517 576 C 357.5 555.83 317.5 301.17 217 170 C 176.8 117.67 108.3 -28 224 9.5 C 246.8 16.83 252.5 47.83 268 66.17 M 72.5 372 C -120.2 561.17 171 692 346 690 C 498 688.17 764.3 639.17 791 655 L 828 677 C 754.5 652 719.7 569 721 507 M 230 309 L 195 287 L 570 331" horiz-adv-x="624.0"/>
<glyph unicode="G" glyph-name="G" d="M 775.76 639 C 732.06 804.67 412.56 698.67 278.76 608 C 77.26 471.5 -118.24 163.83 162.46 51.33 C 306.26 -6.33 510.76 112.67 649.76 233 C 709.06 284.33 755.56 322.83 804.76 372 C 694.06 357.17 656.56 -293.33 315.76 -406 C 163.56 -456.33 148.56 -316 227.76 -217.67 C 387.76 -19 565.96 48.33 797.76 91.33" horiz-adv-x="832.43"/>
<glyph unicode="H" glyph-name="H" d="M 290 539 C 382.8 556.33 428.7 627.33 482 699 C 391.7 291.5 90.5 -308.83 -129 -72.5 M 939 680 C 801.3 680.83 738.2 345.67 665 211 C 617.2 123 632.2 -14.33 728 6.33 C 811.2 24.17 856.5 115.17 907 183 M 53 195.67 C 7 363 90.8 362.33 236 372 C 391.2 382.33 730.3 221.33 850 321" horiz-adv-x="907.0"/>
<glyph unicode="I" glyph-name="I" d="M 501 693 C 442 498 379.7 304 280 126 C 233.3 42.67 137.2 -1.17 23.8 27.67 C -9.5 36.17 4 91.5 29.2 72.33 C 139.2 -10.83 311.2 56.83 447 37.83 M 233 450 C 36.7 693.83 516.5 732.33 665 649" horiz-adv-x="548.0"/>
<glyph unicode="J" glyph-name="J" d="M 643 715 C 581 627.67 524 387.33 427.8 192.83 C 331.7 -1.67 196.2 -150.5 60.3 -62.17 C -48.2 8.5 179.2 224.67 309 302 C 405.8 359.67 514.8 381.17 624 403 M 268 438 C 178.2 491.33 198.3 585.5 271.8 631.33 C 395 708 570 696.17 684 646" horiz-adv-x="687.0"/>
<glyph unicode="K" glyph-name="K" d="M 132 532 C 244.8 563.67 281.7 618.17 334 699 C 246.2 433.17 139.2 126 -25.2 -50.33 C -107.7 -139 -222 -171 -293 -56.67 M 756 699 C 500 545.83 319 396 145 180 M 296 403 C 336.7 262.33 391.7 -49.67 595 3.17 C 648.8 17.17 635.5 71.5 595 97.67" horiz-adv-x="759.0"/>
<glyph unicode="L" glyph-name="L" d="M 133.3 -120 C 328.3 13.5 295.7 541.5 505.3 680 C 596.2 740 700.3 751.5 705.5 624 C 656.3 302.5 480 211.83 123 81.83 C 88.3 68.83 35.7 38.67 17.3 48 C 7.2 53.17 -16.7 92.83 32.2 80.67 C 247.3 27 363 -141.83 583 -203.67 C 709.3 -239.17 873.2 -168.17 841 -56.67" horiz-adv-x="683.67"/>
<glyph unicode="M" glyph-name="M" d="M 224 536 C 310.5 562.83 361.3 618 406 693 L 428 699 L 365 529 C 294 337.17 191.8 -42.83 10.3 -49.5 C -176.7 -56.33 355.8 478.33 447 542 C 586 639.17 714.3 717.67 756 513 C 785.8 366 729.8 218.5 687 75.67 L 712 81.83 C 862 237.5 1043.7 711.67 1156.2 614 C 1305.3 484.67 941.3 228.67 1090.5 39.17 C 1140.2 -23.67 1263.7 95.33 1319.8 183" horiz-adv-x="1319.8"/>
<glyph unicode="N" glyph-name="N" d="M -230 -37.83 C -186.3 -184.83 -20.5 -113.83 37.8 -34.67 C 210.7 200.33 276.2 414.83 350 658 M 158 513 C 256.2 539.5 303.8 598 328 658 L 360.5 656.17 C 366.7 420 341 184.5 457.5 32.83 C 607.7 -162.33 739.5 123.17 788 274 C 835.5 421.83 848 563 797 709 C 832.8 652.5 868 603.17 926 570" horiz-adv-x="932.0"/>
<glyph unicode="O" glyph-name="O" d="M 37.8 328 C 89 614.5 363 722.33 551 712 C 917.3 691.83 825.7 260.33 636 78.83 C 416.2 -131.5 76 -100.33 136 281.83 C 161.7 445.5 326.2 594.33 504 570" horiz-adv-x="850.0"/>
<glyph unicode="P" glyph-name="P" d="M 504 576 C 370.5 560.67 359.7 460.67 306 362 C 271.2 298 232.5 237 198 173 C 164.2 110.33 112.8 -94.33 243 56.67 M 101 359 C -172.2 588.83 433.3 743.33 624 693 C 898.2 620.67 859.7 435 639 340 C 505.8 282.67 358.8 254 214 271" horiz-adv-x="739.0"/>
<glyph unicode="Q" glyph-name="Q" d="M 699 715 C 955.7 605.5 762.5 268.67 646 123 C 568.3 25.83 444.8 -23.67 337 -25.17 C 174.8 -27.5 106 26 64 177.5 C -27.7 509.17 393.5 831 573 724 C 800.3 588.5 667.5 288 513 151 C 441 87.17 290.3 10.83 230 63 C 202.3 87 270.2 92 296 78.83 C 541.3 -46.5 636.3 -191.33 896.5 -214 C 995 -222.5 1143.3 -166 1080.3 -37.83" horiz-adv-x="866.67"/>
<glyph unicode="R" glyph-name="R" d="M 498 573 C 343.7 588 388.2 446.17 215 198 C 188.8 160.33 119.3 59 166.3 10.17 C 185.7 -9.83 206.8 26.17 227 44.17 M 81.8 369 C -84.3 514.83 137.3 641.33 274 671 C 475 714.83 764.8 726.17 813 536 C 865 330.67 213 232.83 202 293 L 198 315 C 188.8 365.67 323 235.67 386.3 120.5 C 430.3 40.33 652.3 -199.67 882 -176 C 946.8 -169.33 978.5 -117.67 976 -66.17" horiz-adv-x="772.33"/>
<glyph unicode="S" glyph-name="S" d="M 693 580 C 741.8 640.5 735 702.5 665 709 C 555.3 719.17 212.8 655.83 272.5 490 C 294.5 428.67 722.8 397.5 652 224 C 578.8 44.67 127.5 -49.33 63 9.5 C -69.3 130 145.7 332.67 293 324" horiz-adv-x="772.67"/>
<glyph unicode="T" glyph-name="T" d="M 56.7 378 C -52.5 470.67 8.3 593 113 646 C 357.5 769.67 868.5 598 860 674 C 851.5 750.17 695 533.33 743 463 M 529 570 C 401.7 562.5 220.5 212.17 180 66.17 C 161.5 -0.33 225.8 -17.33 268 63" horiz-adv-x="554.0"/>
<glyph unicode="U" glyph-name="U" d="M 9.5 476 C 95.8 519.5 201.5 567.17 249 662 L 280 662 C 200.3 563.5 155.3 445.67 104 331 C 41.5 191.5 -31.7 -80 224 40.83 C 392.5 120.5 667.8 385.5 743 646 C 775.2 757.17 639.2 750.83 595 684 C 508.8 553.67 429 170.5 425 -56.67 C 423.7 -135.33 466.8 -230.17 558 -183" horiz-adv-x="671.0"/>
<glyph unicode="V" glyph-name="V" d="M 53.5 454 C -46.8 594.67 69.7 658.83 189 668 C 291 675.83 387.5 694.5 469 649 M 331 718 C 363 606.17 335 561.5 299 482 C 168.8 194.17 53.5 -90.33 277 -37.83 C 530.5 21.67 692 425.17 895 662 C 921 692.33 959.7 724 1001.7 724" horiz-adv-x="737.0"/>
<glyph unicode="W" glyph-name="W" d="M 69.3 444 C -82.5 611 148.3 669.33 265 680 C 339.8 686.83 418.5 684.33 488 652 M 416 709 C 406.3 545.5 293 470.17 220 353 C 112.8 181 -74.5 -113.67 148 -59.83 C 345.8 -12.17 548.3 201.5 684 394 C 725.2 452.5 758.7 577.83 712 586 C 651.2 596.5 656.7 389.17 662 299 C 672.3 121.83 857.5 -70.33 986 31.5 C 1233.5 227.67 1134.3 812.17 876 643" horiz-adv-x="1206.33"/>
<glyph unicode="X" glyph-name="X" d="M 66.2 457 C -50.3 532.67 0.5 623.5 104 665 C 240.8 719.83 358.3 685.83 485 662 M 419 699 C 374.8 508.33 423.3 292 493 148 C 582.2 -36.33 682.5 11.5 816 158 M 778 696 C 645.8 512.17 505.7 328 350 173 C 157.2 -18.83 -146.2 -255.67 -271 -41" horiz-adv-x="816.0"/>
<glyph unicode="Y" glyph-name="Y" d="M 28.3 482 C 141.2 516.83 209.2 612.17 287 668 C 208.2 489 85 356 59.2 156.5 C 25 -107.33 237.2 59.33 334 145 C 489.5 282.67 573 482.5 664.5 641.5 C 682.8 673.5 723.7 675.17 759 680 C 585 594.5 563 240 457 -6.33 C 402.5 -132.83 344.7 -265.67 233 -346 C 133.3 -417.67 28.2 -433 3.2 -350 C -44.7 -190.67 387.5 91.33 598 91.33" horiz-adv-x="693.67"/>
<glyph unicode="Z" glyph-name="Z" d="M 145 554 C 106 803.5 600.5 676.17 734 633 C 779.2 618.33 880 678 835 702 C 752.7 745.67 514 437 362 290 C 261 192.33 165 40.5 18.8 28.33 C -10 26 -11.5 73.5 15.8 72.33 C 105.8 69 170.2 1 243 -50.33 C 439 -188.5 821 -327.17 769 -41 M 239 340 L 236 321 L 621 340" horiz-adv-x="750.0"/>
<glyph unicode="[" glyph-name="bracketleft" d="M 570 652 L 444 652 C 307.2 447.83 161 242.17 69.3 12.67 L 202 12.67" horiz-adv-x="526.0"/>
<glyph unicode="\" glyph-name="backslash" d="M 44.2 652 C 155.3 454.33 227.8 239.33 309 28.33" horiz-adv-x="381.0"/>
<glyph unicode="]" glyph-name="bracketright" d="M 428 655 L 554 649 C 464.7 419.33 325.8 214 186 12.67 L 53.5 18.83" horiz-adv-x="510.0"/>
<glyph unicode="^" glyph-name="asciicircum" d="M 186 662 L 378 765 L 485 658" horiz-adv-x="791.0"/>
<glyph unicode="_" glyph-name="underscore" d="M -28.3 -34.67 L 674 -34.67" horiz-adv-x="709.0"/>
<glyph unicode="`" glyph-name="grave" d="M 72.5 523 L 202 444" horiz-adv-x="406.0"/>
<glyph unicode="a" glyph-name="a" d="M 527 183 C 497.46 146.65 475.39 110.03 437.16 74.74 C 392.61 33.6 350.65 16.91 309.8 26.5 C 243 42 308.8 193 334 274 C 305.2 222.5 251.7 184 208 145 C 110.2 57.5 -59 -68.83 -14.2 149.5 C 6.2 248 256.3 413.5 362 345.33" horiz-adv-x="527.0"/>
<glyph unicode="b" glyph-name="b" d="M 0 183 C 72.8 276.15 627.2 664.5 403.5 721 C 306.5 745.5 108.7 389.83 69.3 202 C 69.3 202 51.3 114.83 59.8 72.33 C 61.2 65.5 69.3 53.67 69.3 53.67 C 75.7 212.17 320.2 367 365.5 334 C 518.3 222.67 204.5 -23.67 18.8 -9.5" horiz-adv-x="468.17"/>
<glyph unicode="c" glyph-name="c" d="M 273 306 C 306 389.5 180 365.17 131 328 C 31 251.83 -103 77.67 -2 25.17 C 88 -22 253 66 345 183" horiz-adv-x="346.0"/>
<glyph unicode="d" glyph-name="d" d="M 347 312 C 286 432.67 135 325.83 66 265 C -29 181 -90 14.67 41 21.83 C 108 25.5 251 200.67 357 296.33 C 462 392.17 596 474.83 690 607.17 C 733 667.83 736 750.17 658 721 C 445 641.33 243 42.67 252 -44.17 C 258 -97.33 306 -120.5 359 -101" horiz-adv-x="514.67"/>
<glyph unicode="e" glyph-name="e" d="M 0 185.52 C 50.24 232.04 171 233.13 241.49 275.19 C 311.97 317.25 310 369.41 218 356 C 68 334.17 -156 56 70 9.5 C 154 -7.83 285 98.17 353 183" horiz-adv-x="353.0"/>
<glyph unicode="f" glyph-name="f" d="M -110 -365 C -29 -349.83 38 10.17 104 154 C 159 274.67 393 840.17 523 696 C 576 637 328 305.33 173 220 C 98 178.83 24 154.83 28 208 C 30 229.17 270 102.33 364 177.17" horiz-adv-x="400.67"/>
<glyph unicode="g" glyph-name="g" d="M 338 350 C 193 408.67 -174 100.83 13 31 C 90 2.5 229 183.67 319 274 L 350 274 L 196 -85 C 149 -195.33 104 -305.17 10 -381 C -46 -426.33 -112 -424.83 -123 -375 C -155 -226.33 140 -75.33 290 22 C 359 66.67 414 124 470 183" horiz-adv-x="470.0"/>
<glyph unicode="h" glyph-name="h" d="M 0 183 C 163.59 391.5 578 573.17 498 696 C 376 882 94 187.5 45 31.5 C 107 103.17 154 188.67 224 252 C 278 300.83 435 393.67 372 261 C 329 171.5 220 -10.33 382 18.83 C 463 33.5 508 121.67 561 183" horiz-adv-x="561.0"/>
<glyph unicode="i" glyph-name="i" d="M 0 183 C 95 292.67 82 266.67 103 328 C 69 179.5 -67 0.17 96 6.33 C 153 8.5 198.22 113.33 260 183 M 166 476 L 137 438" horiz-adv-x="260.0"/>
<glyph unicode="j" glyph-name="j" d="M -2 183 C 41 230.33 81 277 134 312 C 175 305 16 -11.33 -52 -145 C -117 -273.17 -227 -476 -329 -400 C -427 -326.67 -140 -127.5 -39 -59.83 C 68 11.67 181.47 84.43 257 183 M 235 482 C 211 455.67 186 452.83 216 428" horiz-adv-x="258.0"/>
<glyph unicode="k" glyph-name="k" d="M 0 185.52 C 129.34 316.03 357 463.17 404 530.17 C 463 613 542 724.67 438 728 C 335 731.33 226 526.5 158 394 C 96 272 52 143.5 13 12.67 C 123 115.83 248 334.33 372 346 M 171 249 C 214 47.33 243 -80.17 394 -148 C 443 -170.17 495 -134.33 489 -66.17" horiz-adv-x="356.0"/>
<glyph unicode="l" glyph-name="l" d="M 0 185.52 C 108.59 293.34 500 659.33 407 709 C 286 773.33 84 396.67 9 204 C -29 104.5 -29 15.83 70 18.83 C 160 21.67 203.79 127.17 256 183" horiz-adv-x="256.47"/>
<glyph unicode="m" glyph-name="m" d="M 0 185.52 C 37.06 234.22 84.01 272.25 118.22 325.78 L 11.02 22.36 C 134.02 100.2 263 367 337 340 C 390 320.5 279 175.5 243 107 C 332 183.67 416 253 526 293 C 342 -16.5 517 -67.17 690 183" horiz-adv-x="690.0"/>
<glyph unicode="n" glyph-name="n" d="M 516 183 C 456.79 110.15 420.82 43.22 331.64 18.18 C 268.52 1.47 231.45 41.89 298.58 195.02 C 317.62 238.77 402.78 342.47 348.68 337.29 C 253.49 327.95 110.22 140.41 8.02 24.86 L 115.23 328.28 C 91.18 278.85 51.62 249.02 0 185.5" horiz-adv-x="516.0"/>
<glyph unicode="o" glyph-name="o" d="M 231 337 C 197 425.33 7 252.17 -4 161 C -47 -165.67 331 122.33 275 284 C 162 126.67 239 -42.83 395 183" horiz-adv-x="395.0"/>
<glyph unicode="p" glyph-name="p" d="M 30 28.5 C 173 -34.33 508 286.5 322 346 C 292 355.5 170 367.5 30 56 L -160 -369 C -94 -364.33 -14 -47.17 25 71.83 L 120 359 C 83 301.83 66 280.02 0 185.52" horiz-adv-x="400.0"/>
<glyph unicode="q" glyph-name="q" d="M 344 334 C 216 429.17 -140 146 4 34.5 C 85 -28.83 256 198.5 335 284 C 430 386.33 454 363 436 416 C 410 492.83 54 -369.17 181 -403 C 380 -456 293 -79 266 34.67 C 385 28.67 449.48 94.17 527 183" horiz-adv-x="527.0"/>
<glyph unicode="r" glyph-name="r" d="M 0 183 C 59 278.33 123 370.33 186 463 C -33 325.5 126 355.5 290 353 C 198 234.83 71 103.5 139 37.17 C 201 -23.5 312 112.33 369 183" horiz-adv-x="369.0"/>
<glyph unicode="s" glyph-name="s" d="M 0 183 C 64 256 82 295.33 98 328 C 168 463.67 492 505.5 360 365 M 92 312.5 C 81 191.33 349 197.83 186 31.5 C 158 3 -52 -91.17 16 34.67" horiz-adv-x="357.5"/>
<glyph unicode="t" glyph-name="t" d="M 0 183 C 44.88 236.48 268.31 458.95 249 510 C 227 595.83 -22 46.83 51 22 C 126 -3.67 223 108.5 290 183 M 86 346 L 290 356" horiz-adv-x="290.0"/>
<glyph unicode="u" glyph-name="u" d="M 73 309 C -3 207.67 -78 28.33 16 28.33 C 144 28.67 242 219 319 353 L 350 343 C 296 244 163 50.5 281 22 C 348 5.67 433 112.67 489 183" horiz-adv-x="489.0"/>
<glyph unicode="v" glyph-name="v" d="M 0 185.52 C 31.74 227.83 173.48 391.4 70 345 C 39.91 331.51 86 132.67 32 9.5 C 98 113 169 212.83 256 299 C 316 358.17 389 445.5 479 419" horiz-adv-x="321.0"/>
<glyph unicode="w" glyph-name="w" d="M 89 346 C 10 235.83 -90 14.33 17 18.83 C 120 23.33 191 190.17 256 290 L 285 287 C 237 165.83 159 47.67 300 15.83 C 397 -6.17 733 416.83 496 435" horiz-adv-x="554.0"/>
<glyph unicode="x" glyph-name="x" d="M -2 183 L 99 306 C 201 430.83 164 119.17 241 40.83 C 321 -40.83 421 93.17 487 183 M 430 346 C 287 322.33 -39 -70 -87 -183" horiz-adv-x="487.0"/>
<glyph unicode="y" glyph-name="y" d="M 108 312 C 29 245.5 -80 90.17 -15 50.17 C 108 -25.33 246 219.83 354 334 L 389 331 C 312 194.33 278 39 203 -97.67 C 104 -277 36 -464.5 -121 -375.83 C -218 -321.83 47 -120.5 143 -66.17 C 266 3.83 385 75.33 477 183" horiz-adv-x="477.0"/>
<glyph unicode="z" glyph-name="z" d="M -4 180 C 130 393.83 192 321 368 296 C 448 284.5 464 399.5 381 334 C 248 229.17 177 109.17 44 22 C -39 -32.5 -28 91 50 66.17 C 186 22.67 242 -66.33 368 28.33 C 423 70.17 462 128.5 504 183" horiz-adv-x="504.0"/>
<glyph unicode="{" glyph-name="braceleft" d="M 432 668 C 65 619.33 409 391.83 63 362 C 342 263.17 -159 86 158 -28.33" horiz-adv-x="488.0"/>
<glyph unicode="|" glyph-name="bar" d="M 132 684 L 126 -28.33" horiz-adv-x="296.0"/>
<glyph unicode="}" glyph-name="braceright" d="M 372 674 C 596 678 412 476.67 369 384 C 405 361.83 441 359.83 482 356 C 180 304.17 406 -34.33 28 -31.5" horiz-adv-x="558.0"/>
<glyph unicode="~" glyph-name="asciitilde" d="M 161 463 C 284 563.33 316 395.5 422 482" horiz-adv-x="491.0"/>
<glyph unicode="¡" glyph-name="exclamdown" d="M 110 40.83 C 192 184.67 256 338.67 321 491 M 350 643 L 372 665" horiz-adv-x="359.0"/>
<glyph unicode="¢" glyph-name="cent" d="M 295 306 C 307 460 72 256.67 36 208 C -40 105.5 -46 11.83 109 15.83 C 226 18.83 298 94.33 367 183 M 171 530 L 165 -111" horiz-adv-x="324.0"/>
<glyph unicode="£" glyph-name="sterling" d="M 449 411 L 784 435 M 1002 709 C 1054 1040.5 757 872.17 671 712 C 498 389.17 561 20.67 186 9.5 C -11 3.67 93 222.17 243 176 C 465 108 746 -133.33 914 145" horiz-adv-x="958.0"/>
<glyph unicode="¥" glyph-name="yen" d="M 54 662 C 92 532.5 153 303.67 280 312 C 427 321.67 551 672.33 463 665 C 355 656 322 404.83 306 268 C 294 161.17 308 53.67 315 -53.5 M 186 135 L 416 135 M 186 261 L 416 261" horiz-adv-x="510.0"/>
<glyph unicode="¦" glyph-name="brokenbar" d="M 290 220 C 294 134.17 289 45.83 267 -37.83 M 290 693 C 290 599.17 289 516.33 267 435" horiz-adv-x="90.67"/>
<glyph unicode="¨" glyph-name="dieresis" d="M 249 491 L 234 466 M 499 531 L 484 505" horiz-adv-x="567.0"/>
<glyph unicode="©" glyph-name="copyright" d="M 38 328 C 94 578.83 290 679.5 444 715 C 751 774 878 482 728 198 C 593 -57 205 -167 132 138 C 89 320 294 598.67 504 570 M 369 339 C 478 338.5 600 497.33 502 513 C 404 528.67 339 462.17 276 367 C 106 109.67 404 93.33 554 252" horiz-adv-x="850.0"/>
<glyph unicode="ª" glyph-name="ordfeminine" d="M 405 721 L 386 696 L 361 669 L 323 646 L 293 639 L 279 662 L 285 701 L 306 767 L 296 751 L 246 702 L 192 658 L 148 639 L 126 663 L 129 707 L 175 761 L 232 795 L 272 808 L 313 808 L 320 802" horiz-adv-x="263.0"/>
<glyph unicode="«" glyph-name="guillemotleft" d="M 156 449 L 40 222 C 62 164.33 83 106.67 101 47.83 M 282 449 L 166 222 C 188 164.67 209 106.67 227 47.83" horiz-adv-x="270.0"/>
<glyph unicode="®" glyph-name="registered" d="M 38 328 C 76 611.67 348 728.33 551 712 C 835 689.17 832 388.83 728 198 C 617 -6.17 458 -60.5 288 -47 C 117 -33.33 74 217.17 183 400 C 250 512.67 369 588.33 504 570 M 438 444 C 366 444.17 364 370.33 335 324 L 293 257 C 269 218.17 235 111.33 302 180 M 230 342 C 192 369.67 186 407.17 216 438 C 295 520.83 419 529.33 524 498 C 623 468.33 617 367 528 340 C 458 318.83 317 271.17 290 304 C 290 304 285 313 288 315 C 308 327.5 345 272 345 272 C 404 158.67 693 -42.5 674 107" horiz-adv-x="850.0"/>
<glyph unicode="°" glyph-name="degree" d="M 153 665 C 167 738.33 232 784 307 781 C 355 779 379 746.17 379 703 C 380 607.67 284 504.83 196 567 C 153 597.67 206 751.33 293 738" horiz-adv-x="306.0"/>
<glyph unicode="±" glyph-name="plusminus" d="M 192 -0 L 374 5 M 144 383 L 532 383 M 411 534 L 263 202" horiz-adv-x="585.0"/>
<glyph unicode="²" glyph-name="twosuperior" d="M 257 876 C 253 882.67 250 892.83 255 898 C 308 951 377 967.67 444 940 C 516 910.67 472 838.67 427 803 L 375 762 C 307 708.33 253 670.33 186 638 C 172 631.5 185 664.83 198 671 C 252 696.83 306 641.67 359 628 C 401 617.17 454 627 472 673" horiz-adv-x="351.0"/>
<glyph unicode="³" glyph-name="threesuperior" d="M 277 879 C 293 964.5 430 983.33 460 912 C 489 841.83 398 828.17 339 813 C 298 802.5 291 823.67 342 819 C 530 801.83 442 678 334 630 C 291 610.83 161 642.17 208 696" horiz-adv-x="332.0"/>
<glyph unicode="´" glyph-name="acute" d="M 293 568 L 163 489" horiz-adv-x="378.0"/>
<glyph unicode="·" glyph-name="middot" d="M 249 340 L 231 310" horiz-adv-x="268.0"/>
<glyph unicode="¸" glyph-name="cedilla" d="M 233 -25.33 L 233 -55.5 C 233 -66.67 235 -78.17 233 -89.5 C 230 -107 205 -156.83 192 -170.5 C 175 -187.17 123 -208 92 -200.5" horiz-adv-x="690.0"/>
<glyph unicode="¹" glyph-name="onesuperior" d="M 243 855 C 283 879.83 308 915.83 335 953 L 350 953 C 318 880.5 285 808.33 253 736 C 242 707.67 235 679 230 649 M 162 635 C 210 651.17 250 649.5 298 647" horiz-adv-x="189.0"/>
<glyph unicode="º" glyph-name="ordmasculine" d="M 153 665 C 170 738.67 230 784.17 307 781 C 355 779 383 748.17 383 704.5 C 383 610.67 288 502.83 207 572.17 C 137 631 217 747.33 293 738" horiz-adv-x="306.0"/>
<glyph unicode="»" glyph-name="guillemotright" d="M 102 444 C 115 393.17 133 346.33 157 300 C 127 244.33 98 187.67 70 131 L 33 63 M 227 444 C 240 393.17 258 346.33 282 300 C 253 243.33 225 187.17 195 131 L 160 63" horiz-adv-x="284.0"/>
<glyph unicode="¼" glyph-name="onequarter" d="M 102 648 C 148 678 182 720.83 213 765 L 232 765 C 178 632.67 112 537.83 87 401 M 3 384 C 62 403.17 110 401.5 170 399 M 638 655 C 477 450.67 320 243.17 183 22 M 618 -3.83 C 650 134 718 266.83 775 382 C 687 273.67 543 244 472 134 C 555 177.17 635 149 718 149 C 753 159.83 782 173.33 805 202" horiz-adv-x="822.31"/>
<glyph unicode="½" glyph-name="onehalf" d="M 102 648 C 148 678 182 720.83 213 765 L 232 765 C 178 632.67 112 537.83 87 401 M 3 384 C 62 403.17 110 401.5 170 399 M 638 655 C 477 450.67 320 243.17 183 22 M 592 295 C 588 303.33 583 314.83 590 321 C 653 385.33 742 416.33 817 372 C 935 302.17 797 206.17 733 159 C 528 7.17 480 -14.17 535 52.33 C 575 100.83 687 -10.67 782 -3.83 C 813 -1.5 838 21.17 850 51" horiz-adv-x="889.37"/>
<glyph unicode="¾" glyph-name="threequarters" d="M 143 677 L 153 718 C 160 742.33 237 777.17 287 764 C 483 713.17 315 593 187 586 C 177 585.5 167 608.17 177 609 C 262 616 357 586.17 347 503 C 333 389.33 188 341.83 88 372 C 45 384.83 38 422.17 60 457 M 638 655 C 477 450.67 320 243.17 183 22 M 618 -3.83 C 653 139.83 712 253.33 775 382 C 690 283 538 237.17 472 134 C 578 197.17 720 94.33 805 202" horiz-adv-x="813.18"/>
<glyph unicode="¿" glyph-name="questiondown" d="M 467 167 L 453 126 C 437 76.83 282 -4.67 192 34.67 C 82 82.67 108 228.67 183 315 C 250 391.33 367 422.33 403 523 M 477 671 L 498 696" horiz-adv-x="564.0"/>
<glyph unicode="À" glyph-name="À" d="M 3 46.33 C 83 -159.5 308 -24.17 420 84.33 C 637 296 760 491.33 952 704.5 L 972 711.5 C 853 511.5 767 254 775 105.17 C 787 -95.5 973 100.5 1043 185.5 M 142 166.5 C 132 304.17 217 359.67 337 339.5 C 510 310.5 913 213.17 972 298.5 M 730 920.67 L 858 841.67" horiz-adv-x="1043.0"/>
<glyph unicode="Á" glyph-name="Á" d="M 1067 962.67 L 937 883.67 M 3 53 C 83 -153 308 -17.67 418 90.83 C 635 302.5 758 497.83 952 711 L 972 718 C 853 518 767 260.67 775 111.67 C 787 -88.83 973 107 1043 192 M 142 173 C 132 310.67 217 366.17 337 346 C 510 317 913 219.67 972 305" horiz-adv-x="1043.0"/>
<glyph unicode="Â" glyph-name="Â" d="M 843 915.67 L 967 982.67 L 1035 913.67 M 5 50 C 85 -155.83 310 -20.5 422 88 C 638 299.67 762 495 953 708.17 L 973 715.17 C 855 515 768 257.67 777 108.83 C 788 -91.83 975 104.17 1045 189.17 M 143 170.17 C 133 307.83 218 363.33 340 343.17 C 512 314 915 216.83 973 302.17" horiz-adv-x="1045.0"/>
<glyph unicode="Ã" glyph-name="Ã" d="M 858 801.67 C 962 888.67 955 730 1057 815.67 M 7 49.33 C 87 -156.67 310 -21.17 422 87.33 C 638 299 762 494.33 955 707.5 L 973 714.5 C 857 514.33 770 257 778 108 C 788 -92.5 977 103.5 1047 188.5 M 145 169.5 C 133 307.17 220 362.67 340 342.5 C 513 313.33 917 216 973 301.5" horiz-adv-x="1045.67"/>
<glyph unicode="Ä" glyph-name="Ä" d="M 720 900.67 L 707 875.67 M 1002 932.67 L 987 907.67 M 2 52.67 C 82 -153.33 307 -18 418 90.5 C 635 302.17 758 497.5 952 710.83 L 970 717.83 C 852 517.67 767 260.33 773 111.33 C 785 -89.17 973 106.67 1042 191.83 M 142 172.83 C 130 310.33 217 365.83 337 345.83 C 508 316.67 912 219.33 970 304.83" horiz-adv-x="1042.0"/>
<glyph unicode="Å" glyph-name="Å" d="M 902 950.67 C 917 1023.5 982 1072.33 1057 1065.83 C 1163 1056.33 1133 930.83 1083 875.67 C 1012 799.67 910 835.67 930 940.67 C 938 989 990 1030.83 1042 1023.17 M 5 56 C 85 -150 310 -14.67 422 93.83 C 638 305.5 762 500.83 953 714 L 973 721 C 855 521 768 263.67 777 114.67 C 788 -85.83 975 110 1045 195 M 143 176 C 133 313.67 220 369.17 340 349 C 512 320 915 222.67 973 308" horiz-adv-x="1045.67"/>
<glyph unicode="Æ" glyph-name="AE" d="M 90 316.17 C 400 348 712 329.33 1023 321.17 M 1097 543.83 C 1083 623.67 1100 642.33 1173 711 C 1002 691.67 720 750.67 647 638.33 M -43 -100.67 C -43 -100.67 103 292.17 198 419 C 295 545.83 398 665.83 478 709.17 C 587 762.67 642 740.5 647 692.33 C 638 495.83 445 252.67 505 74.83 C 533 -1.5 568 -23.33 655 -55.17 C 742 -86.83 902 -79.83 1008 -51.67 C 1115 -23.67 1277 96.67 1277 96.67" horiz-adv-x="1304.0"/>
<glyph unicode="Ç" glyph-name="Ccedilla" d="M 233 -25.33 C 242 -110.5 188 -219.83 92 -200.5 M 297 362 C 388 357 453 389.83 527 441 C 628 512.5 758 721.33 563 712 C 375 703.17 197 565.5 110 419 C -185 -83.67 375 -157.33 668 189" horiz-adv-x="670.0"/>
<glyph unicode="È" glyph-name="È" d="M 662 587.33 L 667 511.33 C 613 705 438 828.67 332 622.33 C 275 512.33 497 242.67 503 313.33 L 507 344.33 C 510 386.5 273 366.83 180 316.33 C -105 162.5 -12 -54.33 317 -39.83 C 520 -31 875 105.83 805 259.33 M 437 918 L 567 839" horiz-adv-x="837.8"/>
<glyph unicode="É" glyph-name="É" d="M 665 584 L 670 508 C 617 701.83 442 825.33 335 619 C 278 509.17 500 239.33 507 310 L 510 341 C 513 383.33 277 363.5 183 313 C -102 159.17 -8 -57.67 320 -43.17 C 523 -34.33 878 102.67 808 256 M 762 986 L 632 908" horiz-adv-x="845.8"/>
<glyph unicode="Ê" glyph-name="Ê" d="M 663 576.83 L 670 500.83 C 615 694.5 440 818.17 333 611.83 C 277 501.83 498 232.17 505 302.83 L 508 333.83 C 513 376 275 356.33 182 305.83 C -103 152 -8 -64.83 320 -50.33 C 522 -41.5 877 95.5 808 248.83 M 433 871 L 552 935 L 617 869" horiz-adv-x="845.8"/>
<glyph unicode="Ë" glyph-name="Ë" d="M 667 580.67 L 672 504.67 C 617 698.5 442 822 335 615.67 C 278 505.83 502 236 508 306.67 L 510 337.67 C 515 380 277 360.17 183 309.67 C -100 155.83 -7 -61 322 -46.5 C 525 -37.67 878 99.33 810 252.67 M 557 897 L 542 872 M 822 907 L 805 882" horiz-adv-x="845.8"/>
<glyph unicode="Ì" glyph-name="Ì" d="M 508 696.33 C 448 501.33 387 307.33 287 129.33 C 240 46 143 2.17 32 31 C -3 39.5 10 94.83 37 75.67 C 147 -7.5 318 60.17 453 41.17 M 240 453.33 C 43 697.17 523 735.67 672 652.33 M 297 920 L 425 841" horiz-adv-x="548.0"/>
<glyph unicode="Í" glyph-name="Í" d="M 500 696.33 C 442 501.17 380 307.33 280 129.33 C 233 46 137 2 23 30.83 C -10 39.33 3 94.67 28 75.67 C 138 -7.5 310 60.17 447 41 M 233 453.33 C 37 697.17 517 735.67 665 652.33 M 598 952 L 470 873" horiz-adv-x="548.0"/>
<glyph unicode="Î" glyph-name="Î" d="M 503 692.5 C 443 497.33 382 303.5 282 125.5 C 235 42.17 140 -1.83 27 27 C -7 35.5 7 91 32 71.83 C 142 -11.33 313 56.33 450 37.33 M 235 449.5 C 38 693.33 518 731.83 667 648.5 M 353 894 L 473 959 L 542 892" horiz-adv-x="548.0"/>
<glyph unicode="Ï" glyph-name="Ï" d="M 503 689.83 C 445 494.67 382 300.83 282 122.83 C 235 39.5 140 -4.5 27 24.33 C -7 32.83 7 88.33 32 69.17 C 142 -14 313 53.67 450 34.5 M 235 446.83 C 38 690.67 518 729.17 667 645.83 M 383 907 L 368 881 M 615 938 L 600 913" horiz-adv-x="548.0"/>
<glyph unicode="Ð" glyph-name="Ð" d="M 580.41 554.67 C 455.41 525.5 420.41 441.67 381.41 334.67 C 335.41 202 273.41 72.83 193.41 -43.5 C 103.41 -20.17 135.41 151.33 141.41 208.67 C 188.41 76.33 321.41 4.33 451.41 -0.83 C 770.41 -13.17 1041.41 247.33 951.41 532.67 C 876.41 767.33 445.41 727 191.41 614.67 C 46.41 550.83 -68.59 376.5 116.41 293.67 M 230.41 284 L 501.41 291" horiz-adv-x="972.99"/>
<glyph unicode="Ñ" glyph-name="Ñ" d="M -225 -36.83 C -180 -183.83 -15 -113 43 -33.67 C 217 201.33 282 415.67 355 659 M 163 514 C 262 540.5 310 599 333 659 L 367 657.17 C 372 420.83 347 185.33 463 33.83 C 613 -161.5 745 124 793 275 C 842 422.83 853 563.83 803 710 C 838 653.33 873 604 932 571 M 503 864 C 572 949.67 653 827.67 718 880" horiz-adv-x="932.0"/>
<glyph unicode="Ò" glyph-name="Ò" d="M 40 328 C 92 614.5 365 722.33 553 712 C 920 691.67 828 260.33 638 78.67 C 418 -131.67 78 -100.33 138 281.83 C 165 445.5 328 594.17 507 570 M 473 930 L 603 851" horiz-adv-x="850.0"/>
<glyph unicode="Ó" glyph-name="Ó" d="M 38 330 C 90 616.5 363 724.33 552 714 C 918 693.83 827 262.33 637 80.83 C 417 -129.5 77 -98.33 137 283.83 C 163 447.5 327 596.33 505 572 M 765 959 L 637 880" horiz-adv-x="850.0"/>
<glyph unicode="Ô" glyph-name="Ô" d="M 40 330.83 C 92 617.33 365 725.17 553 714.83 C 920 694.5 828 263 638 81.5 C 418 -128.83 78 -97.5 138 284.67 C 163 448.33 328 597 507 572.83 M 442 881 L 562 946 L 627 879" horiz-adv-x="850.0"/>
<glyph unicode="Õ" glyph-name="Õ" d="M 38 326.5 C 90 612.83 363 720.83 552 710.5 C 918 690.17 827 258.67 637 77.17 C 417 -133.17 77 -101.83 137 280.33 C 162 444 327 592.67 505 568.5 M 425 889 C 505 983.5 555 836 647 905" horiz-adv-x="850.0"/>
<glyph unicode="Ö" glyph-name="Ö" d="M 35 320.5 C 85 607 360 714.83 548 704.5 C 915 684.17 823 252.83 633 71.33 C 413 -139 73 -107.83 133 274.33 C 158 438 323 586.67 500 562.5 M 558 919 L 543 893 M 773 932 L 758 907" horiz-adv-x="850.0"/>
<glyph unicode="×" glyph-name="multiply" d="M 88 369 C 115 373.17 137 383.5 158 397 C 215 267.5 223 153.5 265 31.5 L 262 12.67 M 365 397 L 362 406 C 223 238.5 70 116.5 -38 -66.17" horiz-adv-x="324.0"/>
<glyph unicode="Ø" glyph-name="Ø" d="M 37 326.5 C 88 613 362 721 550 710.5 C 917 690.33 825 258.83 635 77.33 C 415 -133 75 -101.83 135 280.33 C 160 444 325 592.83 502 568.5 M 778 757 L 468 353 L 298 119 L 162 -97.83" horiz-adv-x="850.0"/>
<glyph unicode="Ù" glyph-name="Ù" d="M 8 478.67 C 95 522.17 200 569.83 248 664.67 L 280 664.67 C 200 566 155 448.33 103 333.67 C 40 194.17 -33 -77.33 223 43.5 C 392 123.17 667 388.17 742 648.67 C 775 759.83 638 753.5 593 686.67 C 508 556.33 428 173.17 425 -54 C 423 -132.67 467 -227.5 557 -180.33 M 432 933 L 560 854" horiz-adv-x="671.0"/>
<glyph unicode="Ú" glyph-name="Ú" d="M 17 476.33 C 102 520 208 567.5 255 662.33 L 287 662.33 C 207 563.83 162 446 110 331.33 C 48 191.83 -25 -79.5 230 41.33 C 398 121 675 386 750 646.33 C 782 757.5 645 751.17 602 684.33 C 515 554 435 170.83 432 -56.33 C 430 -135 473 -229.83 565 -182.67 M 673 992 L 545 914" horiz-adv-x="671.0"/>
<glyph unicode="Û" glyph-name="Û" d="M 12 475.5 C 98 519 203 566.67 252 661.5 L 283 661.5 C 203 563 158 445.17 107 330.5 C 43 191 -30 -80.33 227 40.5 C 395 120.17 670 385.17 745 645.5 C 777 756.67 642 750.33 598 683.5 C 512 553.17 432 170 427 -57.17 C 427 -135.83 470 -230.67 560 -183.5 M 363 833 L 478 895 L 542 832" horiz-adv-x="671.0"/>
<glyph unicode="Ü" glyph-name="Ü" d="M 15 483.67 C 102 527.17 208 574.83 255 669.67 L 287 669.67 C 207 571.17 162 453.33 110 338.67 C 48 199.17 -25 -72.33 230 48.5 C 398 128.17 673 393.17 748 653.67 C 782 764.83 645 758.5 602 691.67 C 515 561.33 435 178.17 432 -49 C 430 -127.67 473 -222.5 563 -175.33 M 422 930 L 407 905 M 737 899 L 722 874" horiz-adv-x="671.0"/>
<glyph unicode="Ý" glyph-name="Ý" d="M 27 489.33 C 140 524 208 619.5 285 675.33 C 207 496.33 83 363.17 58 163.83 C 23 -100 235 66.5 332 152.33 C 488 290 572 489.83 663 648.83 C 682 680.67 722 682.5 757 687.33 C 583 601.83 562 247.17 455 1 C 400 -125.5 343 -258.33 232 -338.67 C 132 -410.33 27 -425.67 2 -342.67 C -47 -183.33 385 98.67 597 98.67 M 648 938 L 520 860" horiz-adv-x="627.0"/>
<glyph unicode="ß" glyph-name="germandbls" d="M -292 -96.83 C -228 -273 -62 -98.5 10 65.83 C 83 235 170 566.17 282 641 C 375 703.83 537 666.83 483 537.83 C 438 430.17 272 416 230 357.67 C 193 307.5 552 161.83 402 58 C 215 -70.17 117 17.67 117 17.67" horiz-adv-x="506.67"/>
<glyph unicode="à" glyph-name="à" d="M 527 183 C 497.46 146.65 475.39 110.03 437.17 74.74 C 392.61 33.6 350.65 16.92 309.8 26.5 C 243 42 308.8 193 334 274 C 305.2 222.5 251.7 184 208 145 C 110.2 57.5 -59 -68.83 -14.2 149.5 C 6.2 248 256.3 413.5 362 345.33 M 109 595 L 238 516" horiz-adv-x="527.0"/>
<glyph unicode="á" glyph-name="á" d="M 527 183 C 497.46 146.65 475.39 110.03 437.17 74.74 C 392.61 33.6 350.65 16.92 309.8 26.5 C 243 42 308.8 193 334 274 C 305.2 222.5 251.7 184 208 145 C 110.2 57.5 -59 -68.83 -14.2 149.5 C 6.2 248 256.3 413.5 362 345.33 M 352 592 L 222 513" horiz-adv-x="527.0"/>
<glyph unicode="â" glyph-name="â" d="M 527 183 C 497.46 146.65 475.39 110.03 437.17 74.74 C 392.61 33.6 350.65 16.92 309.8 26.5 C 243 42 308.8 193 334 274 C 305.2 222.5 251.7 184 208 145 C 110.2 57.5 -59 -68.83 -14.2 149.5 C 6.2 248 256.3 413.5 362 345.33 M 130 517 L 252 583 L 320 515" horiz-adv-x="527.0"/>
<glyph unicode="ã" glyph-name="ã" d="M 527 183 C 497.46 146.65 475.39 110.03 437.17 74.74 C 392.61 33.6 350.65 16.92 309.8 26.5 C 243 42 308.8 193 334 274 C 305.2 222.5 251.7 184 208 145 C 110.2 57.5 -59 -68.83 -14.2 149.5 C 6.2 248 256.3 413.5 362 345.33 M 128 489 C 202 573.17 250 442 333 504" horiz-adv-x="527.0"/>
<glyph unicode="ä" glyph-name="ä" d="M 527 183 C 497.46 146.65 475.39 110.03 437.17 74.74 C 392.61 33.6 350.65 16.92 309.8 26.5 C 243 42 308.8 193 334 274 C 305.2 222.5 251.7 184 208 145 C 110.2 57.5 -59 -68.83 -14.2 149.5 C 6.2 248 256.3 413.5 362 345.33 M 278 519 L 263 494 M 478 480 L 463 454" horiz-adv-x="527.0"/>
<glyph unicode="å" glyph-name="å" d="M 527 183 C 497.46 146.65 475.39 110.03 437.17 74.74 C 392.61 33.6 350.65 16.92 309.8 26.5 C 243 42 308.8 193 334 274 C 305.2 222.5 251.7 184 208 145 C 110.2 57.5 -59 -68.83 -14.2 149.5 C 6.2 248 256.3 413.5 362 345.33 M 208 665.67 C 217 748.17 295 789 355 782.5 C 478 769.17 428 615.17 358 569.17 C 280 518.67 217 574.17 233 656.67 C 243 704.67 287 745.83 340 738" horiz-adv-x="527.0"/>
<glyph unicode="æ" glyph-name="ae" d="M 318 147.67 C 425 170.17 642 284.83 580 341.33 C 532 384.83 248 220 273 81.5 C 297 -57 563 44.83 655 183 M 282 145.67 C 297 186.33 323 232 337 274 C 255 163.83 87 6.67 5 30.17 C -77 53.67 7 203.5 75 261 C 142 318.5 300 398.33 363 343" horiz-adv-x="660.0"/>
<glyph unicode="ç" glyph-name="ccedilla" d="M 128 27.67 C 147 -43 103 -120 33 -102.83 M 273 306 C 272 397.5 188 365.33 132 328 C 50 274.5 -105 97 -8 33.33 C 83 -27.67 258 53.83 345 183" horiz-adv-x="345.0"/>
<glyph unicode="è" glyph-name="è" d="M 0 185.52 C 50.24 232.04 171 233.13 241.49 275.19 C 311.97 317.25 310 369.41 218 356 C 68 334.17 -156 56 70 9.5 C 154 -7.83 285 98.17 353 183 M 7 574 L 136 495" horiz-adv-x="353.0"/>
<glyph unicode="é" glyph-name="é" d="M 0 185.52 C 50.24 232.04 171 233.13 241.49 275.19 C 311.97 317.25 310 369.41 218 356 C 68 334.17 -156 56 70 9.5 C 154 -7.83 285 98.17 353 183 M 303 615 L 173 536" horiz-adv-x="353.0"/>
<glyph unicode="ê" glyph-name="ê" d="M 0 185.52 C 50.24 232.04 171 233.13 241.49 275.19 C 311.97 317.25 310 369.41 218 356 C 68 334.17 -156 56 70 9.5 C 154 -7.83 285 98.17 353 183 M 72 502 L 190 566 L 255 500" horiz-adv-x="353.0"/>
<glyph unicode="ë" glyph-name="ë" d="M 0 185.52 C 50.24 232.04 171 233.13 241.49 275.19 C 311.97 317.25 310 369.41 218 356 C 68 334.17 -156 56 70 9.5 C 154 -7.83 285 98.17 353 183 M 162 473 L 147 448 M 417 504 L 402 479" horiz-adv-x="354.0"/>
<glyph unicode="ì" glyph-name="ì" d="M 0 183 C 95 292.67 82 266.67 103 328 C 69 179.5 -67 0.17 96 6.33 C 153 8.5 198.22 113.33 260 183 M -1 598 L 127 520" horiz-adv-x="260.0"/>
<glyph unicode="í" glyph-name="í" d="M 0 183 C 95 292.67 82 266.67 103 328 C 69 179.5 -67 0.17 96 6.33 C 153 8.5 198.22 113.33 260 183 M 236 591 L 106 513" horiz-adv-x="267.83"/>
<glyph unicode="î" glyph-name="î" d="M 0 183 C 95 292.67 82 266.67 103 328 C 69 179.5 -67 0.17 96 6.33 C 153 8.5 198.22 113.33 260 183 M 56 501 L 171 564 L 236 499" horiz-adv-x="260.0"/>
<glyph unicode="ï" glyph-name="ï" d="M 0 183 C 95 292.67 82 266.67 103 328 C 69 179.5 -67 0.17 96 6.33 C 153 8.5 198.22 113.33 260 183 M 88 480 L 72 454 M 308 526 L 292 500" horiz-adv-x="267.83"/>
<glyph unicode="ñ" glyph-name="ñ" d="M 516 181.15 C 456.79 108.3 420.82 41.38 331.64 16.33 C 268.52 -0.37 231.45 40.04 298.58 193.17 C 317.62 236.93 402.78 340.63 348.68 335.45 C 253.49 326.1 110.22 138.57 8.02 23.01 L 115.23 326.43 C 91.18 277 51.62 247.17 0 183.65 M 165 486 C 230 570.17 300 439.5 372 501" horiz-adv-x="516.0"/>
<glyph unicode="ò" glyph-name="ò" d="M 231 337 C 197 425.33 7 252.17 -4 161 C -47 -165.67 331 122.33 275 284 C 162 126.67 239 -42.83 395 183 M 76 584 L 206 505" horiz-adv-x="395.0"/>
<glyph unicode="ó" glyph-name="ó" d="M 231 337 C 197 425.33 7 252.17 -4 161 C -47 -165.67 331 122.33 275 284 C 162 126.67 239 -42.83 395 183 M 303 608 L 173 529" horiz-adv-x="397.33"/>
<glyph unicode="ô" glyph-name="ô" d="M 231 337 C 197 425.33 7 252.17 -4 161 C -47 -165.67 331 122.33 275 284 C 162 126.67 239 -42.83 395 183 M 91 509 L 211 574 L 278 507" horiz-adv-x="397.33"/>
<glyph unicode="õ" glyph-name="õ" d="M 231 337 C 197 425.33 7 252.17 -4 161 C -47 -165.67 331 122.33 275 284 C 162 126.67 239 -42.83 395 183 M 56 509 C 128 596.67 193 458.33 270 524" horiz-adv-x="397.33"/>
<glyph unicode="ö" glyph-name="ö" d="M 231 337 C 197 425.33 7 252.17 -4 161 C -47 -165.67 331 122.33 275 284 C 162 126.67 239 -42.83 395 183 M 128 510 L 113 485 M 351 522 L 335 496" horiz-adv-x="397.33"/>
<glyph unicode="÷" glyph-name="divide" d="M 432 472 L 415 447 M 438 220 L 423 195 M 242 331 L 582 337" horiz-adv-x="666.0"/>
<glyph unicode="ø" glyph-name="ø" d="M 231 337 C 197 425.33 7 252.17 -4 161 C -47 -165.67 331 122.33 275 284 C 162 126.67 239 -42.83 395 183 M 300 437 L 138 227 L 50 106 L -20 -6.67" horiz-adv-x="397.33"/>
<glyph unicode="ù" glyph-name="ù" d="M 73 309 C -3 207.67 -78 28.33 16 28.33 C 144 28.67 242 219 319 353 L 350 343 C 296 244 163 50.5 281 22 C 348 5.67 433 112.67 489 183 M 83 571 L 212 492" horiz-adv-x="495.0"/>
<glyph unicode="ú" glyph-name="ú" d="M 73 309 C -3 207.67 -78 28.33 16 28.33 C 144 28.67 242 219 319 353 L 350 343 C 296 244 163 50.5 281 22 C 348 5.67 433 112.67 489 183 M 322 556 L 192 477" horiz-adv-x="495.0"/>
<glyph unicode="û" glyph-name="û" d="M 73 309 C -3 207.67 -78 28.33 16 28.33 C 144 28.67 242 219 319 353 L 350 343 C 296 244 163 50.5 281 22 C 348 5.67 433 112.67 489 183 M 103 503 L 222 568 L 288 502" horiz-adv-x="489.0"/>
<glyph unicode="ü" glyph-name="ü" d="M 73 309 C -3 207.67 -78 28.33 16 28.33 C 144 28.67 242 219 319 353 L 350 343 C 296 244 163 50.5 281 22 C 348 5.67 433 112.67 489 183 M 193 498 L 176 473 M 451 532 L 436 507" horiz-adv-x="489.0"/>
<glyph unicode="ý" glyph-name="ý" d="M 108 312 C 29 245.5 -80 90.17 -15 50.17 C 108 -25.33 246 219.83 354 334 L 389 331 C 312 194.33 278 39 203 -97.67 C 104 -277 36 -464.5 -121 -375.83 C -218 -321.83 47 -120.5 143 -66.17 C 266 3.83 385 75.33 477 183 M 346 590 L 218 511" horiz-adv-x="477.0"/>
<glyph unicode="ÿ" glyph-name="ÿ" d="M 108 312 C 29 245.5 -80 90.17 -15 50.17 C 108 -25.33 246 219.83 354 334 L 389 331 C 312 194.33 278 39 203 -97.67 C 104 -277 36 -464.5 -121 -375.83 C -218 -321.83 47 -120.5 143 -66.17 C 266 3.83 385 75.33 477 183 M 174 480 L 157 455 M 469 487 L 452 462" horiz-adv-x="488.0"/>
<glyph unicode="Ă" glyph-name="Ă" d="M -8 44.17 C 72 -161.83 297 -26.5 407 82 C 625 293.67 748 489 940 702.33 L 960 709.33 C 842 509.17 755 251.83 763 102.83 C 775 -97.67 962 98.17 1032 183.33 M 130 164.33 C 120 301.83 205 357.33 325 337.33 C 498 308.17 902 210.83 960 296.33 M 1022 1056.67 C 1022 1056.67 977 959.17 857 958.5 C 737 957.83 723 1060.67 723 1060.67" horiz-adv-x="1033.67"/>
<glyph unicode="ă" glyph-name="ă" d="M 527 183 C 497.46 146.65 475.39 110.03 437.17 74.74 C 392.61 33.6 350.65 16.92 309.8 26.5 C 243 42 308.8 193 334 274 C 305.2 222.5 251.7 184 208 145 C 110.2 57.5 -59 -68.83 -14.2 149.5 C 6.2 248 256.3 413.5 362 345.33 M 478 658.33 C 478 658.33 433 560.83 313 560.17 C 193 559.5 179 662.33 179 662.33" horiz-adv-x="528.0"/>
<glyph unicode="Ĕ" glyph-name="Ĕ" d="M 667 585.17 L 673 509.17 C 618 702.83 443 826.5 337 620.17 C 280 510.17 503 240.33 510 311.17 L 512 342.17 C 517 384.33 278 364.67 185 314.17 C -100 160.33 -5 -56.5 323 -42 C 525 -33.17 880 103.67 812 257.17 M 755 1052.67 C 755 1052.67 708 955.17 588 954.5 C 468 953.83 457 1056.67 457 1056.67" horiz-adv-x="871.33"/>
<glyph unicode="ĕ" glyph-name="ĕ" d="M 0 185.52 C 50.24 232.04 171 233.13 241.49 275.19 C 311.97 317.25 310 369.41 218 356 C 68 334.17 -156 56 70 9.5 C 154 -7.83 285 98.17 353 183 M 395 664.17 C 395 664.17 348 566.67 228 566 C 108 565.33 97 668.17 97 668.17" horiz-adv-x="346.0"/>
<glyph unicode="Ğ" glyph-name="Ğ" d="M 827 646 C 783 811.83 463 705.83 330 615 C 128 478.5 -67 170.83 213 58.33 C 358 0.67 562 119.67 702 240 C 760 291.5 807 329.83 857 379 C 745 364.33 708 -286.17 367 -399 C 215 -449.33 200 -308.83 278 -210.5 C 438 -12 617 55.33 848 98.5 M 787 1017 C 787 1017 742 919.5 622 918.83 C 502 918.17 488 1021 488 1021" horiz-adv-x="951.0"/>
<glyph unicode="ğ" glyph-name="ğ" d="M 329 352.67 C 184 411.17 -184 103.5 4 33.5 C 81 5.17 219 186.17 309 276.67 L 341 276.67 L 186 -82.33 C 139 -192.83 94 -302.67 1 -378.33 C -56 -423.83 -121 -422.33 -132 -372.33 C -164 -223.67 131 -72.83 281 24.67 C 349 69.17 404 126.5 461 185.67 M 449 670.17 C 449 670.17 404 572.67 284 572 C 164 571.33 151 674.17 151 674.17" horiz-adv-x="461.0"/>
<glyph unicode="Ĭ" glyph-name="Ĭ" d="M 510 684.17 C 452 489 390 295.17 290 117.17 C 243 33.83 147 -10.17 33 18.67 C 0 27.17 13 82.67 38 63.5 C 148 -19.67 320 48 457 29 M 243 441.17 C 47 685 527 723.5 675 640.17 M 658 1044.17 C 658 1044.17 613 946.67 493 946 C 373 945.33 360 1048.17 360 1048.17" horiz-adv-x="548.0"/>
<glyph unicode="ĭ" glyph-name="ĭ" d="M 382 660.33 C 382 660.33 337 562.83 217 562.17 C 97 561.5 84 664.33 84 664.33 M 0 183 C 95 292.67 82 266.67 103 328 C 69 179.5 -67 0.17 96 6.33 C 153 8.5 198.22 113.33 260 183" horiz-adv-x="267.83"/>
<glyph unicode="İ" glyph-name="İ" d="M 503 698.67 C 445 503.67 382 309.83 282 131.67 C 235 48.33 140 4.5 27 33.33 C -7 41.83 7 97.17 32 78.17 C 142 -5 313 62.5 450 43.5 M 235 455.67 C 38 699.5 518 738 667 654.67 M 543 816 L 515 778" horiz-adv-x="548.0"/>
<glyph unicode="ı" glyph-name="ı" d="M 0 183 C 95 292.67 82 266.67 103 328 C 69 179.5 -67 0.17 96 6.33 C 153 8.5 198.22 113.33 260 183" horiz-adv-x="260.0"/>
<glyph unicode="Ŏ" glyph-name="Ŏ" d="M 38 326.5 C 90 613 363 720.83 552 710.5 C 918 690.17 827 258.83 637 77.33 C 417 -133 77 -101.83 137 280.33 C 163 444 327 592.67 505 568.5 M 755 1034 C 755 1034 708 936.33 588 935.67 C 468 935 457 1038 457 1038" horiz-adv-x="850.0"/>
<glyph unicode="ŏ" glyph-name="ŏ" d="M 231 337 C 197 425.33 7 252.17 -4 161 C -47 -165.67 331 122.33 275 284 C 162 126.67 239 -42.83 395 183 M 415 674.67 C 415 674.67 370 577.17 250 576.5 C 130 575.83 116 678.67 116 678.67" horiz-adv-x="397.33"/>
<glyph unicode="Ş" glyph-name="Ş" d="M 700 577.17 C 748 637.67 742 699.67 672 706.17 C 562 716.17 218 653 278 487.17 C 300 425.67 728 394.5 658 221.17 C 585 41.83 133 -52.33 70 6.5 C -63 127.17 152 329.83 300 321.17 M 230 7.67 L 227 -22.33 C 225 -33.5 225 -45 223 -56 C 218 -73.17 190 -120.67 175 -132.83 C 157 -147.83 102 -164 72 -153.67" horiz-adv-x="706.0"/>
<glyph unicode="ş" glyph-name="ş" d="M -0.54 181 C 51.46 215.67 74.46 270.33 97.46 326 C 156.46 466.67 491.46 503.67 359.46 363 M 84.46 272 C 162.46 165.17 316.46 178.83 184.46 29.67 C 157.46 -0.5 -53.54 -93.17 14.46 32.67 M 74.46 -16.83 C 74.46 -30.33 77.46 -45.67 77.46 -57.83 C 76.46 -69.17 66.46 -102.5 57.46 -112 C 49.46 -123.67 19.46 -140.5 -0.54 -137.83" horiz-adv-x="321.46"/>
<glyph unicode="Ŭ" glyph-name="Ŭ" d="M 8 471.5 C 93 515.17 200 562.67 247 657.5 L 278 657.5 C 198 559 153 441.17 102 326.5 C 40 187 -33 -84.33 222 36.5 C 390 116.17 667 381.17 742 641.5 C 773 752.67 637 746.33 593 679.5 C 507 549.17 427 166 423 -61.17 C 422 -139.83 465 -234.67 557 -187.5 M 698 1015.33 C 698 1015.33 652 917.67 532 917 C 412 916.5 398 1019.33 398 1019.33" horiz-adv-x="671.0"/>
<glyph unicode="ŭ" glyph-name="ŭ" d="M 442 668.5 C 442 668.5 397 571 277 570.33 C 157 569.67 143 672.5 143 672.5 M 73 309 C -3 207.67 -78 28.33 16 28.33 C 144 28.67 242 219 319 353 L 350 343 C 296 244 163 50.5 281 22 C 348 5.67 433 112.67 489 183" horiz-adv-x="495.0"/>
<glyph unicode="Ÿ" glyph-name="Ÿ" d="M 38 488 C 152 522.67 220 618.17 298 674 C 218 494.83 97 361.83 70 162.5 C 37 -101.33 248 65.17 345 151 C 500 288.67 583 488.33 675 647.5 C 693 679.33 735 681.17 770 686 C 597 600.5 573 245.83 468 -0.33 C 413 -127 355 -259.67 243 -340 C 145 -411.67 38 -427 13 -344 C -33 -184.67 398 97.33 608 97.33 M 370 930.33 L 355 905.33 M 655 924.33 L 640 899.33" horiz-adv-x="627.0"/>
<glyph unicode="˘" glyph-name="breve" d="M 485 761 C 485 761 438 663.5 318 662.83 C 198 662.17 187 765 187 765" horiz-adv-x="791.0"/>
<glyph unicode="–" glyph-name="endash" d="M 242 236 L 582 243" horiz-adv-x="666.0"/>
<glyph unicode="—" glyph-name="emdash" d="M 322 236 L 775 243" horiz-adv-x="888.0"/>
<glyph unicode="“" glyph-name="quotedblleft" d="M 103 669 L 162 598 M 245 669 L 303 598" horiz-adv-x="366.0"/>
<glyph unicode="”" glyph-name="quotedblright" d="M 147 612 L 90 541 M 288 612 L 232 541" horiz-adv-x="366.0"/>
<glyph unicode="‹" glyph-name="guilsinglleft" d="M 157 449 L 40 222 L 67 149 L 83 106 L 102 47.83" horiz-adv-x="180.0"/>
<glyph unicode="›" glyph-name="guilsinglright" d="M 102 444 L 132 350 L 157 300 L 117 224 L 70 131 L 33 63" horiz-adv-x="189.0"/>
<glyph unicode="€" glyph-name="Euro" d="M 595 554 C 738 946.5 -110 579.5 112 161.33 C 217 -34 632 7.33 668 181.67 M 52 321 L 340 331 M 52 510 L 340 520" horiz-adv-x="706.0"/>
</font>
</defs>
</svg>
