<?xml version="1.0" encoding="UTF-8"?>
<!DOCTYPE svg  PUBLIC '-//W3C//DTD SVG 1.1//EN'  'http://www.w3.org/Graphics/SVG/1.1/DTD/svg11.dtd'>
<svg xmlns="http://www.w3.org/2000/svg" xmlns:xlink="http://www.w3.org/1999/xlink" version="1.1">
<metadata>
Font name:               Cutlings Singularis
License:                 SIL Open Font License http://scripts.sil.org/OFL
Designed by:             Ellen Wasbo
Link:                    http://cutlings.wasbo.net/
</metadata>
<defs>
<font horiz-adv-x="70.0" id="CutlingsSingularis">
<font-face font-family="CutlingsSingularis" units-per-em="200.0" ascent="160.0" descent="-40.0" cap-height="100.0" x-height="60.0"/>
<missing-glyph horiz-adv-x="70.0"/>
<glyph unicode=" " glyph-name="space" horiz-adv-x="70.0"/>
<glyph unicode=":" glyph-name=":" d="M 25.57 10.35 C 25.57 10.35 25.82 14.33 28.54 13.03 C 31.39 11.67 29.31 6.42 27.18 8.88 M 25.57 50.64 C 25.57 50.64 25.82 54.62 28.54 53.32 C 31.39 51.96 29.31 46.71 27.18 49.17" horiz-adv-x="55.31"/>
<glyph unicode="!" glyph-name="!" d="M 36.2 29.41 C 28.03 27.36 17.33 24.17 21.11 16.62 C 29.68 -0.49 53.9 1.88 57.42 15.1 C 61.29 29.66 50.79 33.07 36.2 29.41 Z M 37.82 47.22 C 44.29 94.04 52.13 140.04 49.67 192.23" horiz-adv-x="72.59"/>
<glyph unicode="&amp;" glyph-name="&amp;" d="M 111.9 49.2 C 100.94 21.49 97.93 -12.08 47.51 -2.34 C 13.88 4.16 4.04 29.25 8.22 54.15 C 18.03 112.72 91.55 97.32 94.55 129.08 C 95.74 141.68 85.43 159.4 67.1 161.27 C 46.52 163.49 38.5 153.19 38.63 134.45 C 41.52 84.86 63.25 33.68 126.68 18.17" horiz-adv-x="136.3"/>
<glyph unicode="(" glyph-name="," d="M 50.35 182.04 C -21.72 121.51 24.53 -0.38 45.82 -12.89" horiz-adv-x="62.53"/>
<glyph unicode=")" glyph-name="," d="M 7.64 180.14 C 52.94 150.48 63.1 48.48 9.75 -9.1" horiz-adv-x="57.15"/>
<glyph unicode="," glyph-name="," d="M 12.8 8.36 C 12.8 8.36 13.05 12.35 15.78 11.05 C 18.63 9.69 9.16 -6.16 6.37 -5.3" horiz-adv-x="30.68"/>
<glyph unicode="." glyph-name="." d="M 14.95 9.13 C 14.95 9.13 15.2 13.11 17.92 11.81 C 20.77 10.45 18.69 5.2 16.56 7.67" horiz-adv-x="34.03"/>
<glyph unicode="/" glyph-name="/" d="M 77.1 165.35 C 52.55 88.64 28 41.19 3.45 -18.78" horiz-adv-x="87.68"/>
<glyph unicode="0" glyph-name="0" d="M 55.13 152.69 C 35.77 150 6.46 113.01 16.51 57.85 C 20.27 37.07 33.96 -1.46 68.38 -2.1 C 87.68 -2.46 122.35 26.68 114.39 89.16 C 104.65 165.56 56.1 154.31 56.1 154.31" horiz-adv-x="129.59"/>
<glyph unicode="1" glyph-name="1" d="M 15.96 106.79 C 29.42 120.88 46.25 138.6 51.89 157.92 M 51.01 155.27 C 45.06 104.28 41.31 52.11 47.12 7.66" horiz-adv-x="67.56"/>
<glyph unicode="2" glyph-name="2" d="M 18.88 119.66 C 15.33 136.75 36.04 148.58 53.84 149.18 C 80.7 150.1 86.2 122.93 84.52 110.59 C 80.12 78.32 36.78 93.36 9.43 -0.23 C 40.07 14.92 67.11 -13.61 94.94 13.8" horiz-adv-x="106.12"/>
<glyph unicode="3" glyph-name="3" d="M 12.9 130.32 C 18.19 145.78 61.34 168.37 75.19 137.04 C 84.64 115.66 67.1 95.65 48.09 93.36 C 72.57 97.19 85.89 75.6 87.2 58.75 C 93.26 -19.02 15.6 -0.75 5.5 23.95" horiz-adv-x="104.44"/>
<glyph unicode="4" glyph-name="4" d="M 87.76 135.29 C 88.91 80.8 82.66 42.97 89.43 2.63 M 47.7 149.25 C 40.55 115.06 27.43 88.31 15.17 60.48 C 35.69 63.38 64.1 70.28 84.61 68.46" horiz-adv-x="121.21"/>
<glyph unicode="5" glyph-name="5" d="M 11.25 142.1 C 30.83 148.41 60.53 140.99 80.98 145.57 M 13.23 148.04 C 16.97 124.11 16.47 98.09 13.67 76.78 C 61.25 109.56 101.23 81.68 92.53 44.68 C 73.89 -34.49 9.99 12.21 13.23 21.39" horiz-adv-x="107.8"/>
<glyph unicode="6" glyph-name="6" d="M 47.62 145.64 C 35.63 149.93 -0.27 73.15 13.08 38.78 C 21.35 17.48 41.96 -2.26 64.29 2.38 C 85.86 6.86 100.59 46.12 87.98 64.22 C 56.92 102.65 28.13 62.39 27.19 44.52 C 25.44 32.17 28.37 23.83 30.73 14.44" horiz-adv-x="104.44"/>
<glyph unicode="7" glyph-name="7" d="M 17.3 73.87 C 38.74 68.63 58.81 70.25 78.98 71.4 M 8.91 135.66 C 35.95 130.5 59.25 136.62 83.92 138.63 C 56.33 90.69 41.97 28.53 37.53 -6.27" horiz-adv-x="97.74"/>
<glyph unicode="8" glyph-name="8" d="M 46.74 149.31 C 35.95 147.15 21.96 134.19 24.31 115.39 C 28.52 81.78 94.64 84.28 97.81 50.64 C 99.85 29.06 91.97 10.09 55.4 -0.32 C 37.05 -5.54 12.69 20.14 12 39.26 C 8.26 82.35 95.42 92.47 93.4 130.73 C 92.41 149.55 67.11 158.54 45.97 150.63" horiz-adv-x="107.03"/>
<glyph unicode="9" glyph-name="9" d="M 36.59 -17.46 C 45.39 -4.5 55.99 -2.19 74.99 22.19 C 93.99 46.57 112.89 110.25 84.69 142.83 C 61.89 169.1 1.69 131.79 11.49 93.08 C 19.11 68.94 54.06 39.88 98.29 89.95" horiz-adv-x="109.47"/>
<glyph unicode="?" glyph-name="," d="M 57.93 20.29 C 51.9 26.61 43.13 21.07 43.07 15.04 C 43.01 9.19 54.04 -2.11 59.54 15.83 M 48.54 47.58 C 57.34 60.54 58.95 58.17 77.95 82.55 C 96.95 106.93 98.95 139.56 83.7 148.54 C 37.51 173.32 -25.41 123.18 34.59 87.64" horiz-adv-x="106.12"/>
<glyph unicode="A" glyph-name="A" d="M 37.3 65.99 C 50.5 64.02 77.66 62.01 87.26 65.5 M 53.3 144.86 C 73.2 82.03 90.68 20.6 113.44 -40.37 M 55.5 128.33 C 45 82.99 31.2 42.48 17 2.67" horiz-adv-x="131.27"/>
<glyph unicode="B" glyph-name="B" d="M 62.2 85.26 C 82.71 87.73 133.22 55.79 101.42 17.57 C 83.42 -4.17 20.62 4.89 12.02 -0.97 M 9.72 140.75 C 9.72 140.75 52.42 162.26 74.92 149.25 C 92.42 139.16 96.62 117.14 89.52 102.25 C 80.52 83.11 29.02 82.08 29.02 82.08 M 28.62 149.08 C 29.22 97.11 29.52 45.45 22.82 0.79" horiz-adv-x="122.92"/>
<glyph unicode="C" glyph-name="C" d="M 84.7 117.02 C 94.8 127.16 106.8 131.61 118.8 136.31 M 108.9 133.84 C 105.2 144.54 78.8 165.92 54.1 150.66 C 29.4 135.4 13.1 87.4 19.6 53.69 C 36.2 -33.38 115.7 8.82 115.5 34.42" horiz-adv-x="130.96"/>
<glyph unicode="D" glyph-name="D" d="M 12.99 146.82 C 12.99 146.82 58.09 161.2 79.49 148.48 C 103.29 134.27 120.09 102.03 117.59 74.37 C 110.99 4.19 16.19 -9.48 8.19 -20.25 M 27.69 148.25 C 33.99 82.04 30.09 33.53 22.39 -11.36" horiz-adv-x="133.89"/>
<glyph unicode="E" glyph-name="E" d="M 29.9 84.6 C 50.5 81.29 60.2 86.16 74 87.89 M 104.7 26.54 C 107.7 9.36 112.3 -1.23 117.1 -11.06 M 16.5 -4.54 C 48.4 1.44 80.3 -0.43 112.1 -1.66 M 26.3 147.75 C 32.9 90.29 27.3 40.93 21.1 -3.67 M 19.9 147.26 L 101.3 152.2" horiz-adv-x="129.59"/>
<glyph unicode="F" glyph-name="F" d="M 40.6 84.73 C 60.2 79.98 65.1 81.23 76.4 84.24 M 132.6 163.89 C 126.6 148.81 123.4 135.17 124.7 123.82 M 13.2 151.03 C 82.5 147.75 90.6 151.68 129.2 152.02 M 51.7 -50.82 Z M 43.3 151.03 C 38.4 82.36 41.5 17.71 43.8 -47.36" horiz-adv-x="117.85"/>
<glyph unicode="G" glyph-name="G" d="M 117.87 48.37 L 119.2 -6.07 M 77.8 51.81 C 101.1 50.08 113.45 48.25 136.85 53.79 M 114.2 141.91 C 110.9 152.87 75.3 156.63 57.9 147.2 C 26.8 130.38 5.9 96.16 11.5 61.21 C 19.1 14.34 53.81 -7.02 85.61 -4.89 C 110.01 -3.25 117.54 20.18 117.54 20.18" horiz-adv-x="150.31"/>
<glyph unicode="H" glyph-name="H" d="M 27.58 84.47 C 45.48 81.65 101.26 72.02 117.26 72.89 M 111.3 155.51 C 110 92.22 111.1 30.55 115.3 -29.02 M 27 150.57 C 30 95.99 34.8 40.49 27 -8.74" horiz-adv-x="136.6"/>
<glyph unicode="I" glyph-name="I" d="M 22.4 -10.05 C 33.9 -8.97 44.7 -6.65 57.9 -9.06 M 15 143.46 C 26.9 145.77 39.2 148.69 53 152.86 M 39.6 151.87 C 34.6 92 36.3 44.12 42.5 -12.03" horiz-adv-x="70.91"/>
<glyph unicode="J" glyph-name="J" d="M 15.9 155.98 C 31.1 154.56 43.7 154.05 53.4 154.49 M 32.2 154 C 32.2 154 41.3 52.14 39.1 3.11 C 37.9 -24.16 10.5 -73.58 10.5 -73.58" horiz-adv-x="73.81"/>
<glyph unicode="K" glyph-name="K" d="M 43.49 95.81 C 74.89 17.69 90.35 -44.72 165.39 -64.48 M 91.89 170.04 C 70.59 136.24 57.59 105.76 24.19 78.92 M 18.49 149.47 C 26.59 89.69 24.29 49.02 21.49 -7.09" horiz-adv-x="128.71"/>
<glyph unicode="L" glyph-name="L" d="M 119.7 27.58 C 119.2 9.92 120.5 5.33 126.5 -13.15 M 9.7 -6.01 C 47.7 -1.53 85.7 -2.55 123.7 -3.53 M 25.1 155.97 C 29.7 91.3 28.7 49.39 24.9 -6.95" horiz-adv-x="137.97"/>
<glyph unicode="M" glyph-name="M" d="M 123 156.06 C 118.8 119 121.7 50.4 129.1 -9.75 M 16.8 159.01 C 38.7 133.92 57.5 105.61 71.1 89.27 C 85.5 114.66 105.1 136.44 124.4 158.53 M 17.1 154.22 C 20.6 99.42 22.5 32.06 17.4 -13.42" horiz-adv-x="149.71"/>
<glyph unicode="N" glyph-name="N" d="M 89.59 153.63 L 123.49 160.56 M 116.49 159.07 C 114.19 95.59 117.89 50.1 115.49 -13.38 M 9.29 153.31 C 49.39 121.85 83.99 27.65 114.99 -12.89 M 11.59 -5.96 C 25.39 -6.01 40.39 -7.59 51.49 -3.98 M 21.29 140.69 C 23.79 66.78 21.39 47.83 21.29 -4.97" horiz-adv-x="136.21"/>
<glyph unicode="O" glyph-name="O" d="M 60 157.56 C 39 159.38 3.6 114.62 13.6 59.46 C 20.3 22.57 32.6 -3.42 69.4 -4.39 C 88.7 -4.9 131.1 28.29 123.2 90.77 C 113.4 167.17 63.9 160.52 63.9 160.52" horiz-adv-x="137.97"/>
<glyph unicode="P" glyph-name="P" d="M 16.5 148.08 C 48.8 148.18 84.5 166.83 95.2 132.24 C 110.5 82.97 46.8 65.11 28.6 62.98 M 14.08 0.3 C 25.67 -0.44 25.21 -1.94 38.91 -6.88 M 24.4 149.07 C 31 90.18 26.9 55.15 21.9 -1.15" horiz-adv-x="114.02"/>
<glyph unicode="Q" glyph-name="Q" d="M 74.2 22.24 C 94.5 -5.01 122.6 -60.91 161 -15.86 L 161 -15.86 M 58.4 155.71 C 29.7 145.24 9.4 115.29 11 67.4 C 12.3 29.33 33.3 -6.82 64.3 -3.98 C 100.2 -0.69 118.4 24.89 119.6 80.52 C 120.3 117.06 98.39 160.03 58.81 155.06" horiz-adv-x="132.94"/>
<glyph unicode="R" glyph-name="R" d="M 38.34 72.28 C 71.54 21.06 86.54 -46.89 129.74 -48.8 M 8.94 148.55 C 39.54 163.26 68.64 161.78 82.34 137.66 C 108.64 91.21 48.14 73.96 22.54 68.32 M 16.84 151.02 C 23.84 84.55 21.04 56.56 17.84 1.71" horiz-adv-x="117.26"/>
<glyph unicode="S" glyph-name="S" d="M 83.2 111.45 C 86 122.8 95.7 127.26 104.9 132.23 M 100.9 131.24 C 91.3 149.32 73.1 152.82 55.5 151.03 C 37.2 149.15 25.6 133.38 27.4 120.85 C 31.7 90.39 122.1 105.9 130.6 45.92 C 134.1 20.92 110.9 -4.07 77.3 -10.57 C 26.8 -20.31 27 13.26 16.1 40.97" horiz-adv-x="143.0"/>
<glyph unicode="T" glyph-name="T" d="M 58.7 147.66 C 59.9 93.24 62.78 56.17 61.84 1.2 M 12.3 148.65 C 53 144.48 85.3 152.14 119.9 156.57" horiz-adv-x="132.94"/>
<glyph unicode="U" glyph-name="U" d="M 18.1 153.21 C 25.2 86.31 7.6 -3.05 76.3 -3.63 C 139.1 -4.16 129.4 80.49 135.5 153.21" horiz-adv-x="158.09"/>
<glyph unicode="V" glyph-name="V" d="M 93.8 155.77 C 109.2 149.71 124.6 150.32 140.1 148.81 M 10.4 148.81 C 33.7 86.73 54.4 56.76 71.5 -2.85 C 81 63.52 106.1 91.01 127.1 151.59" horiz-adv-x="131.27"/>
<glyph unicode="W" glyph-name="W" d="M 189 157.6 C 198.5 153.33 211.4 148.14 222.1 149.89 M 4 152.36 C 24.5 92.13 41.7 39.12 54.4 -3.97 C 77.6 44.05 95.5 101.29 113.6 158.3 C 125.9 98.72 143.1 47.1 161.9 -1.99 C 181.7 44.1 199.8 93.11 214.2 148.41" horiz-adv-x="227.99"/>
<glyph unicode="X" glyph-name="X" d="M 19.9 154.65 C 46.28 128.49 108.31 12.93 117.76 -5.75 M 109.97 150.85 C 89.27 93.32 47.1 46.51 21.4 -2.18" horiz-adv-x="129.59"/>
<glyph unicode="Y" glyph-name="Y" d="M 87.3 149.7 C 70.2 97.26 53 44.91 32 -3.66 M 11.3 149.7 L 57.7 62.63" horiz-adv-x="102.65"/>
<glyph unicode="Z" glyph-name="Z" d="M 116.15 32.63 C 114.65 18.98 113.45 5.4 117.15 -6.95 M 24.35 158.29 C 25.35 141.48 25.05 129.26 23.35 121.68 M 23.85 147.9 L 112.25 153.34 C 66.15 121.48 41.65 52.29 8.55 -2 C 47.45 0.45 83.85 1.47 116.15 -0.02" horiz-adv-x="129.59"/>
<glyph unicode="\" glyph-name="\" d="M 7.97 152.88 C 32.47 76.17 57.07 28.73 81.57 -31.24" horiz-adv-x="89.35"/>
<glyph unicode="a" glyph-name="a" d="M 60.07 40.79 C 37.77 49 11.17 34.81 11.37 20.73 C 11.87 -8.89 40.17 4.58 61.77 13.71 M 13.07 56.84 C 13.07 56.84 19.97 86.39 42.37 81.49 C 61.57 77.29 62.67 47.19 62.77 34.44 C 62.87 8.81 63.77 -4.83 73.07 -3.46" horiz-adv-x="88.57"/>
<glyph unicode="b" glyph-name="b" d="M 9.93 53.59 C 36.03 92.31 65.83 69.24 65.63 47.57 C 65.23 3.38 36.03 -12.54 9.63 12.8 M 12.23 139.85 C 13.23 94.12 11.83 49.61 9.23 5.66" horiz-adv-x="77.4"/>
<glyph unicode="c" glyph-name="c" d="M 78.8 65.14 C 47.4 103.84 12.1 71.42 12.7 43.74 C 14.1 -16.25 68.9 4.23 80.1 19.67" horiz-adv-x="97.15"/>
<glyph unicode="d" glyph-name="d" d="M 73.17 48.5 C 68.07 81.61 15.17 91.83 9.87 29.95 C 5.87 -16.36 62.87 -2.28 70.47 13.03 M 74.07 150.9 C 65.57 84.85 71.07 30.22 74.37 -28.57" horiz-adv-x="89.27"/>
<glyph unicode="e" glyph-name="e" d="M 72.3 20.28 C 72.3 14.65 36.6 -5.47 23 14.93 C 12.2 31.11 5.2 60.9 27 75.5 C 43.3 86.41 77.4 69.54 73.7 65.8 C 59.6 58.18 34.98 40.33 16.78 28.57" horiz-adv-x="89.77"/>
<glyph unicode="f" glyph-name="f" d="M 16.7 48.25 C 38 51.19 52.5 58.8 68.3 62.24 M 45.1 119.62 C 40.4 119.62 33.9 92.61 34.6 74.84 C 36.1 34.24 47.2 -12.06 38.8 -51.8 C 34.5 -72.21 13.4 -92.17 13.4 -92.17" horiz-adv-x="78.17"/>
<glyph unicode="g" glyph-name="g" d="M 64.9 86.17 C 64.9 86.17 69.4 16.57 63.6 -16.55 C 60.2 -56.66 42.27 -102.15 24.14 -63.4 M 64.1 67.07 C 44.2 103.73 12.1 67.54 12.3 45.83 C 12.8 -7.28 45.4 14.41 65.4 25.92" horiz-adv-x="85.58"/>
<glyph unicode="h" glyph-name="h" d="M 14 45.68 C 23.6 65.83 41.3 75.4 53.6 71.05 C 71.8 64.62 69.4 27.52 71 -0.87 M 14.7 159.36 C 14.6 95.08 12.6 50.66 10.8 -0.33" horiz-adv-x="94.04"/>
<glyph unicode="i" glyph-name="i" d="M 24.1 119.13 C 24.1 119.13 11.1 115.81 12 110.24 C 13.4 101.29 25.2 104.63 31.9 110.73 C 37.2 115.65 24.4 121.6 24.4 121.6 M 12 0.19 C 22.7 1.72 32.1 3.89 46.2 3.68 M 19.7 70.15 C 24 36.16 22.9 18.47 21.8 0.88" horiz-adv-x="65.88"/>
<glyph unicode="j" glyph-name="j" d="M 29.39 123.27 C 29.39 123.27 17.19 119.15 17.49 114.17 C 17.99 108.34 24.99 107.08 30.09 109.97 C 43.39 117.58 28.89 124.55 28.89 124.55 M 24.49 76.39 C 24.49 76.39 31.59 20.78 27.29 -5.47 C 21.99 -37.66 -0.61 -92.23 -0.61 -92.23" horiz-adv-x="75.53"/>
<glyph unicode="k" glyph-name="k" d="M 19.1 46.27 C 17.2 52.09 51.4 109.13 63.9 71.26 C 73.1 43.78 19.7 31.75 20.4 37 C 37.5 31.68 52.7 30.8 64.5 -5.15 C 69.6 -20.78 80.7 -35.01 98 -26.14 M 12.7 182.26 C 21.97 108.45 19.9 60.38 19.8 -2.91" horiz-adv-x="87.2"/>
<glyph unicode="l" glyph-name="l" d="M 23.6 184.24 C 25.4 121.41 27.9 58.4 20.8 -1.87" horiz-adv-x="69.6"/>
<glyph unicode="m" glyph-name="m" d="M 65.99 60.35 C 75.39 75.88 85.39 85.79 99.99 80.56 C 123.39 67.37 111.19 29.79 116.59 1.37 M 14.99 46.16 C 18.75 64.21 42.3 84.26 52.19 78.54 C 73.94 65.98 62.29 30.48 66.39 2.83 M 10.19 74.74 C 14.89 58.12 15.09 29.7 15.99 2.97" horiz-adv-x="139.84"/>
<glyph unicode="n" glyph-name="n" d="M 13.6 60.32 C 18.7 71.34 26.7 82.04 44.7 81.64 C 67.3 81.15 59.5 33.46 63 4.33 M 9.8 78.2 C 12.1 56.13 14.6 34.67 11.8 1.08" horiz-adv-x="87.94"/>
<glyph unicode="o" glyph-name="o" d="M 50.14 76 C 50.14 76 9.3 64.06 17.8 23.47 C 22.3 2.26 42.1 -1.65 58.2 0.25 C 75.2 2.27 93 18.26 93.2 40.07 C 93.3 61.24 60.8 76.97 50.7 74.81" horiz-adv-x="112.73"/>
<glyph unicode="p" glyph-name="p" d="M 19.33 54.19 C 19.33 54.19 51.03 80.11 66.93 70.99 C 85.63 60.28 86.43 25.4 73.03 8.6 C 59.93 -7.75 16.83 8.03 17.83 17.07 M 18.03 66.22 C 19.63 10.16 18.73 -44.49 11.13 -95.3" horiz-adv-x="98.68"/>
<glyph unicode="q" glyph-name="q" d="M 43.49 -65.85 C 63.19 -72.34 65.29 -82.35 72.79 -91.27 M 72.79 81.65 C 70.79 29.89 66.39 -25.99 69.29 -84.98 M 67.39 61.91 C 67.39 61.91 31.69 82.12 19.69 69.66 C 4.39 53.61 6.59 14.04 25.99 3.19 C 41.19 -5.3 68.79 21.33 68.79 21.33" horiz-adv-x="95.92"/>
<glyph unicode="r" glyph-name="r" d="M 10.26 58.89 C 20.36 80.1 45.86 81.64 59.76 71.48 M 9.56 76.38 L 10.26 1.52" horiz-adv-x="71.0"/>
<glyph unicode="s" glyph-name="s" d="M 52.9 67.31 C 46.3 80.45 15.9 73.73 15.2 57.17 C 14.4 36.77 63.6 40.41 63.6 20 C 63.7 6.34 44.9 -3.25 31.3 -3.13 C 22.7 -3.05 12.5 10.19 12.5 10.19" horiz-adv-x="80.27"/>
<glyph unicode="t" glyph-name="t" d="M 9.6 73.12 C 23.7 72.35 31.3 66.56 54 72.42 M 25.9 118.6 C 31.9 113.95 16.8 36.2 27.7 2.31 C 33.5 -15.59 68.1 5.25 64.9 12.25" horiz-adv-x="79.09"/>
<glyph unicode="u" glyph-name="u" d="M 81.65 77 Z M 68.85 75.6 C 66.35 48.78 64.15 28.55 66.35 1.73 M 11.65 76.3 C 11.65 76.3 3.05 14.43 27.05 4.33 C 40.45 -1.32 62.65 16.23 62.65 16.23" horiz-adv-x="90.29"/>
<glyph unicode="v" glyph-name="v" d="M 12 71.21 C 26.9 50.22 34.9 22.9 44.6 1.04 C 54.1 23.31 62.6 47.05 73.8 70.16" horiz-adv-x="90.65"/>
<glyph unicode="w" glyph-name="w" d="M 69.1 65.95 C 79.4 45.69 89.8 29.07 100.1 2.53 L 133.6 77.5 M 13.6 74.7 L 44 3.23 C 51.9 24.83 62.6 55.69 76.4 80.3" horiz-adv-x="152.58"/>
<glyph unicode="x" glyph-name="x" d="M 14.83 73.09 C 29.83 45.44 44.93 15.41 66.83 -1.77 M 57.23 72.04 C 48.63 45.3 36.83 29.19 12.53 -0.02" horiz-adv-x="96.32"/>
<glyph unicode="y" glyph-name="y" d="M 71.1 73.82 C 71.1 73.82 74.3 9.89 67 -20.51 C 61.7 -42.41 40.2 -80.19 40.2 -80.19 M 14.4 73.04 C 14.4 73.04 9 4.86 35.2 -0.05 C 60 -4.68 70.9 24.76 70.9 24.76" horiz-adv-x="94.46"/>
<glyph unicode="z" glyph-name="z" d="M 69.7 27.11 C 69.9 16.97 70.6 7.96 73.5 4.36 L 73.5 4.36 M 23.9 77.82 C 41.1 76.3 58.3 73.72 75.6 78.52 C 53.2 53.52 24.6 34.75 9.3 2.7 C 34 7.39 48.7 4.17 69.5 4.6" horiz-adv-x="95.68"/>
<glyph unicode="~" glyph-name="," d="M 70.69 65.66 C 48.64 18.5 23.75 98.96 13.28 49.15" horiz-adv-x="102.79"/>
<glyph unicode="&#xc5;" glyph-name="&#xc5;" d="M 51.1 187.33 C 40.07 187.31 23.01 185 25.13 171.79 C 27.14 159.25 54.36 164.68 54.36 164.68 L 54.36 164.68 C 54.36 164.68 72.61 170.63 71.2 179.56 C 69.94 187.52 49.97 186.97 49.97 186.97 M 28.51 61.88 C 40.86 60.06 53.24 58.19 62.19 61.42 M 43.47 134.83 C 62.08 76.71 74.74 10.6 96.91 -36.5 M 46.52 123.74 C 36.67 81.81 22.88 40.13 9.6 3.31" horiz-adv-x="115.07"/>
<glyph unicode="&#xd8;" glyph-name="&#xd8;" d="M 59.39 149.04 C 39.79 150.73 3.83 107.32 13.22 56.3 C 19.51 22.18 31.02 -1.86 65.36 -2.76 C 83.4 -3.22 123.09 27.48 115.65 85.26 C 106.54 155.93 60.28 149.78 60.28 149.78 M 110.11 167.56 C 82.63 92.26 45.26 30.97 5.71 -27.23" horiz-adv-x="137.17"/>
<glyph unicode="&#xc6;" glyph-name="&#xc6;" d="M 69.88 138.97 L 146 143.54 M 75.88 139.43 C 82.09 86.28 76.84 40.62 71.07 -0.63 M 66.73 -1.43 C 96.54 4.1 126.34 2.37 156.15 1.23 M 149.23 27.31 C 152 11.42 156.29 1.63 160.77 -7.46 M 75.72 137.95 C 61.1 100.74 23.89 25.64 11.06 4.83 M 46.59 78.05 C 58.94 76.23 107.55 78.4 125.74 81.63" horiz-adv-x="179.85"/>
<glyph unicode="&#xe5;" glyph-name="&#xe5;" d="M 53.75 37.88 C 31.93 45.83 5.9 32.1 6.12 18.47 C 6.57 -10.19 34.27 2.84 55.38 11.67 M 13.54 53.41 C 13.54 53.41 16.32 82.02 38.2 77.27 C 56.95 73.21 57.99 44.07 58.06 31.73 C 58.21 6.93 59.06 -6.27 68.17 -4.94 M 39.71 119.12 C 28.69 119.1 10.47 117.84 12.59 104.64 C 14.6 92.09 39.82 97.52 39.82 97.52 L 39.82 97.52 C 39.82 97.52 56.07 103.47 54.66 112.4 C 53.4 120.36 39.17 118.87 39.17 118.87" horiz-adv-x="77.93"/>
<glyph unicode="&#xe6;" glyph-name="&#xe6;" d="M 54.72 39.47 C 32.91 47.41 6.87 33.68 7.09 20.05 C 7.55 -8.61 35.24 4.42 56.35 13.26 M 12.51 55 C 12.51 55 13.29 83.6 35.18 78.86 C 53.93 74.79 54.61 36.29 54.73 23.95 C 54.99 -1.54 78.01 -2.29 99.8 22.96 M 50.79 61.5 C 65.48 83.09 94.93 77.55 94.16 59.24 C 80.42 51.86 72.71 51.18 54.92 39.79" horiz-adv-x="116.38"/>
<glyph unicode="&#xf8;" glyph-name="&#xf8;" d="M 84.49 99.78 C 42.17 61.7 53.06 9.87 10.57 -25.48 M 45.56 75.05 C 45.56 75.05 4.99 64.09 13.3 25.22 C 17.65 4.92 36.87 1.18 52.45 3 C 68.96 4.93 86.24 20.24 86.38 41.12 C 86.51 61.38 54.97 76.45 45.14 74.38" horiz-adv-x="102.79"/>
<glyph unicode="+" glyph-name="+" d="M 46.54 103.1 C 42.17 63.16 45.39 45.97 46.54 22.58 M 14.46 60 C 38.27 63.85 62.08 67.71 83.96 60" horiz-adv-x="103.6"/>
<glyph unicode="-" glyph-name="-" d="M 19.01 60 C 42.82 63.85 66.63 67.71 88.51 60" horiz-adv-x="103.6"/>
<glyph unicode=";" glyph-name=";" d="M 24.39 50.12 C 24.39 50.12 24.64 54.1 27.36 52.8 C 30.21 51.44 28.13 46.19 26 48.66 M 21.58 5.71 C 21.58 5.71 21.83 9.69 24.56 8.39 C 27.41 7.03 17.94 -8.81 15.15 -7.95" horiz-adv-x="50.7"/>
<glyph unicode="#" glyph-name="#" d="M 72.5 154.08 C 67.58 102.2 54.18 5.75 55.48 -24.65 M 18.34 48.74 C 43.97 53.06 64.09 54.21 96.63 48.74 M 50.71 155.65 C 45.79 103.77 32.4 7.32 33.69 -23.07 M 14.57 99.67 C 41.39 104.67 68.22 109.69 92.87 99.67" horiz-adv-x="106.0"/>
<glyph unicode="=" glyph-name="=" d="M 21.08 43.64 C 46.35 42.37 67.27 43.88 90.59 43.64 M 17.49 65.7 C 48.95 61.9 67.4 67.16 86.99 65.7" horiz-adv-x="115.22"/>
<glyph unicode="@" glyph-name="@" d="M 91.51 56.35 C 91.51 56.35 82.86 81.1 61.41 76.11 C 38.57 70.81 30.4 7.79 53.81 6.48 C 78.44 5.11 98.16 76.64 98.5 74.59 C 98.5 74.59 71.16 13.78 92.73 5.27 C 112.79 -2.65 134.23 34.52 132.86 56.05 C 131.16 82.65 102.26 109.72 75.7 111.99 C 40.42 115.01 8.16 76.13 7.29 40.24 C 6.37 2.65 36.89 -27.71 74.18 -27.57 C 105.44 -27.45 134.55 1.23 133.16 1.92" horiz-adv-x="144.42"/>
<glyph unicode="&#xc4;" glyph-name="&#xc4;" d="M 23.9 152.09 C 23.9 152.09 27.8 151.89 26.5 149.19 C 25.2 146.29 19.9 148.39 22.4 150.49 M 64.2 152.09 C 64.2 152.09 68.1 151.89 66.8 149.19 C 65.5 146.29 60.2 148.39 62.7 150.49 M 28.7 63.35 C 41.1 61.53 53.4 59.66 62.4 62.89 M 43.7 136.3 C 62.3 78.18 74.9 12.07 97.1 -35.03 M 46.7 125.21 C 36.9 83.28 23.1 41.6 9.8 4.78" horiz-adv-x="102.79"/>
<glyph unicode="&#xd1;" glyph-name="&#xd1;" d="M 87.3 178.1 C 65.2 130.94 40.4 211.4 29.9 161.59 M 86.38 145.48 L 120.28 152.41 M 113.28 150.92 C 110.98 87.44 114.68 41.95 112.28 -21.53 M 6.08 145.16 C 46.18 113.7 80.78 19.5 111.78 -21.04 M 8.38 -14.11 C 22.18 -14.16 37.18 -15.74 48.28 -12.13 M 18.08 132.54 C 20.58 58.63 18.18 39.68 18.08 -13.12" horiz-adv-x="137.35"/>
<glyph unicode="&#xd6;" glyph-name="&#xd6;" d="M 45.56 166.36 C 45.56 166.36 49.46 166.16 48.16 163.46 C 46.86 160.56 41.56 162.66 44.06 164.76 M 85.86 166.36 C 85.86 166.36 89.76 166.16 88.46 163.46 C 87.16 160.56 81.86 162.66 84.36 164.76 M 55.1 151.21 C 35.5 152.9 -0.5 109.49 8.9 58.47 C 15.2 24.35 26.7 0.31 61.1 -0.59 C 79.1 -1.05 118.8 29.65 111.4 87.43 C 102.2 158.1 56 151.95 56 151.95" horiz-adv-x="125.83"/>
<glyph unicode="&#xdc;" glyph-name="&#xdc;" d="M 41.9 158.09 C 41.9 158.09 45.8 157.89 44.5 155.19 C 43.2 152.29 37.9 154.39 40.4 156.49 M 82.2 158.09 C 82.2 158.09 86.1 157.89 84.8 155.19 C 83.5 152.29 78.2 154.39 80.7 156.49 M 6.42 153.76 C 13.52 86.86 -4.08 -2.5 64.62 -3.08 C 127.42 -3.61 117.72 81.04 123.82 153.76" horiz-adv-x="135.38"/>
<glyph unicode="&#xdf;" glyph-name="&#xdf;" d="M 14.35 -17.72 C 2.64 21.19 11 119.55 34.82 133.6 C 58.57 147.6 68.55 126.3 68.87 112.58 C 69.34 92.05 45.31 92 44.4 81.99 C 45.85 76.72 89.99 66.92 83.15 25.36 C 76.93 -13.08 31 -2.59 24.92 19.04" horiz-adv-x="93.57"/>
<glyph unicode="&#xe4;" glyph-name="&#xe4;" d="M 23.9 102.09 C 23.9 102.09 27.8 101.89 26.5 99.19 C 25.2 96.29 19.9 98.39 22.4 100.49 M 64.2 102.09 C 64.2 102.09 68.1 101.89 66.8 99.19 C 65.5 96.29 60.2 98.39 62.7 100.49 M 62.29 40.12 C 39.99 48.33 13.39 34.14 13.59 20.06 C 14.09 -9.56 42.39 3.91 63.99 13.04 M 15.29 56.17 C 15.29 56.17 22.19 85.72 44.59 80.82 C 63.79 76.62 64.89 46.52 64.99 33.77 C 65.09 8.14 65.99 -5.5 75.29 -4.13" horiz-adv-x="89.75"/>
<glyph unicode="&#xf1;" glyph-name="&#xf1;" d="M 65.71 117.84 C 43.61 70.68 18.81 151.14 8.31 101.33 M 14.13 58.68 C 19.23 69.7 27.23 80.4 45.23 80 C 67.83 79.51 60.03 31.82 63.53 2.69 M 10.33 76.56 C 12.63 54.49 15.13 33.03 12.33 -0.56" horiz-adv-x="82.05"/>
<glyph unicode="&#xf6;" glyph-name="&#xf6;" d="M 23.9 100.09 C 23.9 100.09 27.8 99.89 26.5 97.19 C 25.2 94.29 19.9 96.39 22.4 98.49 M 64.2 100.09 C 64.2 100.09 68.1 99.89 66.8 97.19 C 65.5 94.29 60.2 96.39 62.7 98.49 M 40.41 76.75 C 40.41 76.75 -0.39 64.81 8.11 24.22 C 12.61 3.01 32.41 -0.9 48.51 1 C 65.51 3.02 83.31 19.01 83.51 40.82 C 83.61 61.99 51.11 77.72 41.01 75.56" horiz-adv-x="100.35"/>
<glyph unicode="&#xfc;" glyph-name="&#xfc;" d="M 23.9 100.09 C 23.9 100.09 27.8 99.89 26.5 97.19 C 25.2 94.29 19.9 96.39 22.4 98.49 M 64.2 100.09 C 64.2 100.09 68.1 99.89 66.8 97.19 C 65.5 94.29 60.2 96.39 62.7 98.49 M 82.63 76.04 Z M 69.73 74.64 C 67.23 47.82 65.13 27.59 67.23 0.77 M 12.63 75.34 C 12.63 75.34 4.03 13.47 28.03 3.37 C 41.33 -2.28 63.63 15.27 63.63 15.27" horiz-adv-x="89.75"/>
<glyph unicode="&quot;" glyph-name="&quot;" d="M 50.57 172.15 C 56.56 170.59 46.27 133.94 40.62 134.51 M 27.12 175.04 C 33.12 173.48 22.82 136.84 17.17 137.4" horiz-adv-x="73.95"/>
</font>
</defs>
</svg>
