<?xml version="1.0" encoding="UTF-8"?>
<!DOCTYPE svg  PUBLIC '-//W3C//DTD SVG 1.1//EN'  'http://www.w3.org/Graphics/SVG/1.1/DTD/svg11.dtd'>
<svg xmlns="http://www.w3.org/2000/svg" xmlns:xlink="http://www.w3.org/1999/xlink" version="1.1">
<metadata>
Font name:               Cutlings Geometric Round
License:                 SIL Open Font License http://scripts.sil.org/OFL
Designed by:             Ellen Wasbo
Link:                    http://cutlings.wasbo.net/
Version:				1
</metadata>
<defs>
<font horiz-adv-x="30.0" id="CutlingsGeometricRound">
<font-face font-family="CutlingsGeometricRound" units-per-em="80.0" ascent="60.0" descent="-15.0" cap-height="60.0" x-height="30.0"/>
<missing-glyph horiz-adv-x="30.0"/>
<glyph unicode=" " glyph-name="space" horiz-adv-x="30.0"/>
<glyph unicode="a" glyph-name="a" d="M 30.35 15.35 L 30.35 0.35 M 30.35 15.35 C 30.35 23.63 23.63 30.35 15.35 30.35 C 7.07 30.35 0.35 23.63 0.35 15.35 C 0.35 7.07 7.07 0.35 15.35 0.35 C 23.63 0.35 30.35 7.07 30.35 15.35 Z" horiz-adv-x="37.65"/>
<glyph unicode="A" glyph-name="A" d="M 0.35 22.35 L 45.35 22.35 M 0.35 -0.15 L 0.35 37.6 C 0.35 50.03 10.42 60.1 22.85 60.1 C 35.28 60.1 45.35 50.03 45.35 37.6 L 45.35 -0.15" horiz-adv-x="52.5"/>
<glyph unicode="F" glyph-name="F" d="M 45.35 60.35 L 11.6 60.35 C 5.39 60.35 0.35 55.31 0.35 49.1 L 0.35 0.35 M 0.35 37.85 L 22.85 37.85" horiz-adv-x="38.87"/>
<glyph unicode="b" glyph-name="b" d="M 0.35 15.35 L 0.35 30.35 L 0.35 45.35 L 0.35 60.35 M 30.35 15.35 C 30.35 7.07 23.63 0.35 15.35 0.35 C 7.07 0.35 0.35 7.07 0.35 15.35 C 0.35 23.63 7.07 30.35 15.35 30.35 C 23.63 30.35 30.35 23.63 30.35 15.35" horiz-adv-x="37.95"/>
<glyph unicode="c" glyph-name="c" d="M 25.96 4.74 C 23.24 2.03 19.49 0.35 15.35 0.35 C 7.07 0.35 0.35 7.07 0.35 15.35 C 0.35 23.63 7.07 30.35 15.35 30.35 C 19.49 30.35 23.24 28.67 25.96 25.96" horiz-adv-x="33.54"/>
<glyph unicode="e" glyph-name="e" d="M 30.35 15.35 C 30.35 11.21 28.67 7.46 25.96 4.74 C 23.24 2.03 19.49 0.35 15.35 0.35 C 11.21 0.35 7.46 2.03 4.74 4.74 C 2.03 7.46 0.35 11.21 0.35 15.35 C 0.35 23.63 7.07 30.35 15.35 30.35 C 19.49 30.35 23.24 28.67 25.96 25.96 L 4.74 4.74" horiz-adv-x="38.44"/>
<glyph unicode="d" glyph-name="d" d="M 30.35 15.35 L 30.35 30.35 L 30.35 45.35 L 30.35 60.35 M 0.35 15.35 C 0.35 7.07 7.07 0.35 15.35 0.35 C 23.63 0.35 30.35 7.07 30.35 15.35 C 30.35 23.63 23.63 30.35 15.35 30.35 C 7.07 30.35 0.35 23.63 0.35 15.35" horiz-adv-x="37.46"/>
<glyph unicode="h" glyph-name="h" d="M 2.35 0.35 L 2.35 60.35 M 2.35 15.35 C 2.35 23.63 9.07 30.35 17.35 30.35 C 25.64 30.35 32.35 23.63 32.35 15.35 L 32.35 0.35" horiz-adv-x="39.95"/>
<glyph unicode="g" glyph-name="g" d="M 0.35 0.35 C 0.35 -7.93 7.07 -14.65 15.35 -14.65 C 23.63 -14.65 30.35 -7.93 30.35 0.35 L 30.35 15.35 M 30.35 15.35 C 30.35 23.63 23.63 30.35 15.35 30.35 C 7.07 30.35 0.35 23.63 0.35 15.35 C 0.35 7.07 7.07 0.35 15.35 0.35 C 23.63 0.35 30.35 7.07 30.35 15.35" horiz-adv-x="36.97"/>
<glyph unicode="f" glyph-name="f" d="M 0.35 30.35 L 15.35 30.35 M 30.35 45.35 C 30.35 53.63 23.63 60.35 15.35 60.35 C 7.07 60.35 0.35 53.63 0.35 45.35 L 0.35 -14.65" horiz-adv-x="27.05"/>
<glyph unicode="k" glyph-name="k" d="M 15.35 15.35 L 30.35 0.35 M 30.35 30.35 L 0.35 0.35 L 0.35 60.35" horiz-adv-x="37.95"/>
<glyph unicode="o" glyph-name="o" d="M 30.35 15.35 C 30.35 11.37 28.77 7.56 25.96 4.74 C 23.14 1.93 19.33 0.35 15.35 0.35 C 11.37 0.35 7.56 1.93 4.74 4.74 C 1.93 7.56 0.35 11.37 0.35 15.35 C 0.35 19.33 1.93 23.14 4.74 25.96 C 7.56 28.77 11.37 30.35 15.35 30.35 C 19.33 30.35 23.14 28.77 25.96 25.96 C 28.77 23.14 30.35 19.33 30.35 15.35" horiz-adv-x="37.95"/>
<glyph unicode="j" glyph-name="j" d="M -3.65 -14.65 C 4.64 -14.65 11.35 -7.93 11.35 0.35 L 11.35 30.35 M 12.85 38.85 C 12.85 39.68 12.18 40.35 11.35 40.35 C 10.52 40.35 9.85 39.68 9.85 38.85 C 9.85 38.02 10.52 37.35 11.35 37.35 C 12.18 37.35 12.85 38.02 12.85 38.85" horiz-adv-x="21.21"/>
<glyph unicode="i" glyph-name="i" d="M 2.83 0.35 L 2.83 30.35 M 4.33 38.85 C 4.33 39.68 3.66 40.35 2.83 40.35 C 2 40.35 1.33 39.68 1.33 38.85 C 1.33 38.02 2 37.35 2.83 37.35 C 3.66 37.35 4.33 38.02 4.33 38.85" horiz-adv-x="12.96"/>
<glyph unicode="n" glyph-name="n" d="M 0.35 0.35 L 0.35 30.35 M 0.35 15.35 C 0.35 23.63 7.07 30.35 15.35 30.35 C 23.63 30.35 30.35 23.63 30.35 15.35 L 30.35 0.35" horiz-adv-x="37.95"/>
<glyph unicode="l" glyph-name="l" d="M 1.82 0.35 L 1.82 60.35" horiz-adv-x="11.48"/>
<glyph unicode="p" glyph-name="p" d="M 0.35 15.35 L 0.35 0.35 L 0.35 -14.65 L 0.35 -29.65 M 30.35 15.35 C 30.35 23.63 23.63 30.35 15.35 30.35 C 7.07 30.35 0.35 23.63 0.35 15.35 C 0.35 7.07 7.07 0.35 15.35 0.35 C 23.63 0.35 30.35 7.07 30.35 15.35" horiz-adv-x="39.08"/>
<glyph unicode="q" glyph-name="q" d="M 30.35 15.35 L 30.35 0.35 L 30.35 -14.65 L 30.35 -29.65 M 0.35 15.35 C 0.35 23.63 7.07 30.35 15.35 30.35 C 23.63 30.35 30.35 23.63 30.35 15.35 C 30.35 7.07 23.63 0.35 15.35 0.35 C 7.07 0.35 0.35 7.07 0.35 15.35" horiz-adv-x="38.44"/>
<glyph unicode="r" glyph-name="r" d="M 0.35 0.35 L 0.35 30.35 M 0.35 15.35 C 0.35 23.63 7.07 30.35 15.35 30.35 C 19.49 30.35 23.24 28.67 25.96 25.96" horiz-adv-x="29.87"/>
<glyph unicode="t" glyph-name="t" d="M 0.35 30.35 L 15.35 30.35 M 30.35 15.35 C 30.35 7.07 23.63 0.35 15.35 0.35 C 7.07 0.35 0.35 7.07 0.35 15.35 L 0.35 50.35" horiz-adv-x="37.95"/>
<glyph unicode="u" glyph-name="u" d="M 30.35 30.35 L 30.35 0.35 M 30.35 15.35 C 30.35 7.07 23.64 0.35 15.35 0.35 C 7.07 0.35 0.35 7.07 0.35 15.35 L 0.35 30.35" horiz-adv-x="37.95"/>
<glyph unicode="v" glyph-name="v" d="M 0.3 30.97 L 15.3 0.97 L 30.3 30.97" horiz-adv-x="37.46"/>
<glyph unicode="w" glyph-name="w" d="M 22.78 30.97 L 37.78 0.97 L 52.78 30.97 M 0.3 30.97 L 15.3 0.97 L 30.3 30.97" horiz-adv-x="60.0"/>
<glyph unicode="x" glyph-name="x" d="M 30.2 30.2 L 0.2 0.2 M 0.2 30.2 L 30.2 0.2" horiz-adv-x="38.44"/>
<glyph unicode="y" glyph-name="y" d="M 0.35 0.35 C 0.35 -7.93 7.07 -14.65 15.35 -14.65 C 23.63 -14.65 30.35 -7.93 30.35 0.35 L 30.35 30.35 M 0.35 30.35 L 0.35 15.35 C 0.35 7.07 7.07 0.35 15.35 0.35 C 23.63 0.35 30.35 7.07 30.35 15.35" horiz-adv-x="37.46"/>
<glyph unicode="s" glyph-name="s" d="M 0.51 9.61 C 1.97 6.07 4.8 3.08 8.62 1.49 C 16.28 -1.68 25.05 1.96 28.22 9.61 C 32.63 24.17 -2.39 11.86 0.51 21.09 C 3.68 28.75 12.45 32.38 20.1 29.21 C 23.93 27.63 26.75 24.64 28.22 21.09" horiz-adv-x="35.5"/>
<glyph unicode="m" glyph-name="m" d="M 30.35 15.35 C 30.35 23.63 37.07 30.35 45.35 30.35 C 53.64 30.35 60.35 23.63 60.35 15.35 L 60.35 0.35 M 0.35 0.35 L 0.35 30.35 M 0.35 15.35 C 0.35 23.63 7.07 30.35 15.35 30.35 C 23.63 30.35 30.35 23.63 30.35 15.35 L 30.35 0.35" horiz-adv-x="67.35"/>
<glyph unicode="&#xe6;" glyph-name="&#xe6;" d="M 60.35 15.35 C 60.35 11.21 58.67 7.46 55.96 4.74 C 53.24 2.03 49.49 0.35 45.35 0.35 C 41.21 0.35 37.46 2.03 34.74 4.74 C 32.03 7.46 30.35 11.21 30.35 15.35 C 30.35 23.63 37.06 30.35 45.35 30.35 C 49.49 30.35 53.24 28.67 55.96 25.96 L 34.74 4.74 M 30.35 15.35 L 30.35 0.35 M 30.35 15.35 C 30.35 7.07 23.63 0.35 15.35 0.35 C 7.06 0.35 0.35 7.07 0.35 15.35 C 0.35 23.63 7.06 30.35 15.35 30.35 C 23.63 30.35 30.35 23.63 30.35 15.35 Z" horiz-adv-x="67.93"/>
<glyph unicode="&#xf8;" glyph-name="&#xf8;" d="M 30.2 30.2 L 0.2 0.2 M 30.35 15.35 C 30.35 7.07 23.64 0.35 15.35 0.35 C 7.07 0.35 0.35 7.07 0.35 15.35 C 0.35 23.63 7.07 30.35 15.35 30.35 C 23.64 30.35 30.35 23.63 30.35 15.35" horiz-adv-x="37.87"/>
<glyph unicode="&#xe5;" glyph-name="&#xe5;" d="M 20.35 43.37 C 20.35 40.61 18.11 38.37 15.35 38.37 C 12.59 38.37 10.35 40.61 10.35 43.37 C 10.35 46.14 12.59 48.37 15.35 48.37 C 18.11 48.37 20.35 46.14 20.35 43.37 Z M 30.35 15.35 L 30.35 0.35 M 30.35 15.35 C 30.35 7.07 23.63 0.35 15.35 0.35 C 7.07 0.35 0.35 7.07 0.35 15.35 C 0.35 23.63 7.07 30.35 15.35 30.35 C 23.63 30.35 30.35 23.63 30.35 15.35 Z" horiz-adv-x="37.87"/>
<glyph unicode="z" glyph-name="z" d="M 1.06 30.35 L 31.06 30.35 L 1.06 0.35 L 31.06 0.35" horiz-adv-x="38.93"/>
<glyph unicode="&#xd8;" glyph-name="&#xd8;" d="M 60.35 60.35 L 0.35 0.35 M 60.35 30.35 C 60.35 22.39 57.19 14.76 51.56 9.14 C 45.94 3.51 38.31 0.35 30.35 0.35 C 22.39 0.35 14.76 3.51 9.14 9.14 C 3.51 14.76 0.35 22.39 0.35 30.35 C 0.35 38.31 3.51 45.94 9.14 51.56 C 14.76 57.19 22.39 60.35 30.35 60.35 C 38.31 60.35 45.94 57.19 51.56 51.56 C 57.19 45.94 60.35 38.31 60.35 30.35" horiz-adv-x="68.32"/>
<glyph unicode="{" glyph-name="{" d="M 20.59 -13.92 C 12.31 -13.92 5.59 -7.2 5.59 1.08 L 5.59 19.08 C 5.59 23.23 3.91 26.98 1.2 29.69 C 3.91 32.41 5.59 36.16 5.59 40.3 L 5.59 60.3 C 5.59 68.58 12.31 75.3 20.59 75.3" horiz-adv-x="23.62"/>
<glyph unicode="}" glyph-name="}" d="M -0.15 -13.92 C 8.13 -13.92 14.85 -7.2 14.85 1.08 L 14.85 19.08 C 14.85 23.23 16.53 26.98 19.24 29.69 C 16.53 32.41 14.85 36.16 14.85 40.3 L 14.85 60.3 C 14.85 68.58 8.13 75.3 -0.15 75.3" horiz-adv-x="28.81"/>
<glyph unicode="C" glyph-name="C" d="M 51.56 9.2 C 46.13 3.77 38.63 0.41 30.35 0.41 C 13.78 0.41 0.35 13.84 0.35 30.41 C 0.35 46.98 13.78 60.41 30.35 60.41 C 38.63 60.41 46.13 57.05 51.56 51.62" horiz-adv-x="59.51"/>
<glyph unicode="G" glyph-name="G" d="M 51.56 51.62 C 46.13 57.05 38.63 60.41 30.35 60.41 C 13.78 60.41 0.35 46.98 0.35 30.41 C 0.35 13.84 13.78 0.41 30.35 0.41 C 38.63 0.41 47.67 3.77 53.1 9.2 L 53.1 23.16 L 30.6 23.16" horiz-adv-x="60.0"/>
<glyph unicode="H" glyph-name="H" d="M 0.35 37.41 L 45.35 37.41 M 45.35 59.91 L 45.35 -0.09 M 0.35 59.91 L 0.35 -0.09" horiz-adv-x="54.12"/>
<glyph unicode="J" glyph-name="J" d="M 7.1 59.91 L 7.1 -0.09 C 7.1 -6.3 2.06 -11.34 -4.15 -11.34" horiz-adv-x="18.35"/>
<glyph unicode="K" glyph-name="K" d="M 22.85 41.4 L 45.35 0.15 M 45.35 60.15 L 0.35 22.65 M 0.35 60.15 L 0.35 0.15" horiz-adv-x="52.65"/>
<glyph unicode="Q" glyph-name="Q" d="M 39.14 9.2 C 44.57 3.77 52.07 0.41 60.35 0.41 M 60.35 30.41 C 60.35 22.45 57.19 14.82 51.56 9.2 C 45.94 3.57 38.31 0.41 30.35 0.41 C 22.39 0.41 14.76 3.57 9.14 9.2 C 3.51 14.82 0.35 22.45 0.35 30.41 C 0.35 38.37 3.51 46 9.14 51.62 C 14.76 57.25 22.39 60.41 30.35 60.41 C 38.31 60.41 45.94 57.25 51.56 51.62 C 57.19 46 60.35 38.37 60.35 30.41" horiz-adv-x="68.03"/>
<glyph unicode="T" glyph-name="T" d="M -0.15 59.41 L 44.85 59.41 M 22.35 59.91 L 22.35 -0.09" horiz-adv-x="52.12"/>
<glyph unicode="U" glyph-name="U" d="M 0.35 60.66 L 0.35 22.91 C 0.35 10.48 10.42 0.41 22.85 0.41 C 35.28 0.41 45.35 10.48 45.35 22.91 L 45.35 60.66" horiz-adv-x="55.6"/>
<glyph unicode="V" glyph-name="V" d="M 0.32 61.34 L 22.82 1.34 L 45.32 61.34" horiz-adv-x="52.18"/>
<glyph unicode="S" glyph-name="S" d="M 5.85 31.44 C 2.42 28.15 0.35 23.86 0.35 19.16 C 0.35 8.81 10.42 0.41 22.85 0.41 C 35.28 0.41 45.35 8.81 45.35 19.16 C 45.68 44.11 4.96 32.18 4.1 49.16 C 4.1 55.37 12.49 60.41 22.85 60.41 C 33.21 60.41 41.6 55.37 41.6 49.16" horiz-adv-x="53.43"/>
<glyph unicode="X" glyph-name="X" d="M 0.25 0.21 L 45.25 60.21 M 0.25 60.21 L 45.25 0.21" horiz-adv-x="52.74"/>
<glyph unicode="Z" glyph-name="Z" d="M 2.41 60.41 L 45.85 60.41 L 0.85 0.41 L 45.85 0.41" horiz-adv-x="53.43"/>
<glyph unicode="+" glyph-name="+" d="M 11.1 28.41 L 11.1 5.91 M -0.15 17.16 L 22.35 17.16" horiz-adv-x="30.11"/>
<glyph unicode="!" glyph-name="!" d="M 3.35 1.91 C 3.35 2.74 2.68 3.41 1.85 3.41 C 1.02 3.41 0.35 2.74 0.35 1.91 C 0.35 1.08 1.02 0.41 1.85 0.41 C 2.68 0.41 3.35 1.08 3.35 1.91 M 1.85 60.41 L 1.85 13.35" horiz-adv-x="14.62"/>
<glyph unicode="8" glyph-name="8" d="M 37.6 49.16 C 36.74 32.18 0.02 44.11 0.35 19.16 C 0.35 8.81 10.43 0.41 22.85 0.41 C 35.28 0.41 45.35 8.81 45.35 19.16 C 45.68 44.11 8.96 32.18 8.1 49.16 C 8.1 55.37 12.49 60.41 22.85 60.41 C 33.21 60.41 37.6 55.37 37.6 49.16 Z" horiz-adv-x="52.5"/>
<glyph unicode="6" glyph-name="6" d="M 38.76 53.82 C 34.69 57.89 29.06 60.41 22.85 60.41 C 10.42 60.41 0.35 50.34 0.35 37.91 L 0.35 22.91 M 0.35 22.91 C 0.35 35.34 10.42 45.41 22.85 45.41 C 35.28 45.41 45.35 35.34 45.35 22.91 C 45.35 10.48 35.28 0.41 22.85 0.41 C 10.42 0.41 0.35 10.48 0.35 22.91" horiz-adv-x="52.5"/>
<glyph unicode="7" glyph-name="7" d="M 1.81 60.21 L 45.25 60.21 L 0.25 0.21" horiz-adv-x="52.5"/>
<glyph unicode="1" glyph-name="1" d="M 0.01 52.41 L 22.51 59.91 L 22.51 -0.09" horiz-adv-x="30.35"/>
<glyph unicode="2" glyph-name="2" d="M 2.35 37.91 C 2.35 50.34 12.42 60.41 24.85 60.41 C 35.87 60.41 45.35 55.11 45.35 43.91 C 45.35 33.94 39.26 30.14 21.44 16.53 L 0.35 0.41 L 45.35 0.41" horiz-adv-x="52.72"/>
<glyph unicode="9" glyph-name="9" d="M 6.94 7 C 11.01 2.93 16.64 0.41 22.85 0.41 C 35.28 0.41 45.35 10.48 45.35 22.91 L 45.35 37.91 M 45.35 37.91 C 45.35 25.48 35.28 15.41 22.85 15.41 C 10.42 15.41 0.35 25.48 0.35 37.91 C 0.35 50.34 10.42 60.41 22.85 60.41 C 35.28 60.41 45.35 50.34 45.35 37.91" horiz-adv-x="57.5"/>
<glyph unicode="3" glyph-name="3" d="M 0.35 22.91 C 0.35 10.48 10.42 0.41 22.85 0.41 C 35.28 0.41 45.35 10.48 45.35 22.91 C 45.35 35.34 35.28 45.41 22.85 45.41 L 45.35 60.41 L 0.35 60.41" horiz-adv-x="53.14"/>
<glyph unicode="4" glyph-name="4" d="M 46.06 22.41 L 1.06 22.41 L 38.56 59.91 L 38.56 -0.09" horiz-adv-x="48.22"/>
<glyph unicode="5" glyph-name="5" d="M 42.54 60.41 L 7.85 60.41 L 7.85 39.68 C 11.92 43.75 16.64 45.41 22.85 45.41 C 35.28 45.41 45.35 35.34 45.35 22.91 C 45.35 10.48 35.28 0.41 22.85 0.41 C 10.42 0.41 0.35 10.48 0.35 22.91" horiz-adv-x="53.14"/>
<glyph unicode="0" glyph-name="0" d="M 45.35 30.41 C 45.35 22.45 42.98 14.82 38.76 9.2 C 34.54 3.57 28.82 0.41 22.85 0.41 C 16.88 0.41 11.16 3.57 6.94 9.2 C 2.72 14.82 0.35 22.45 0.35 30.41 C 0.35 38.37 2.72 46 6.94 51.62 C 11.16 57.25 16.88 60.41 22.85 60.41 C 28.82 60.41 34.54 57.25 38.76 51.62 C 42.98 46 45.35 38.37 45.35 30.41" horiz-adv-x="53.07"/>
<glyph unicode="," glyph-name="," d="M 7.7 2.57 L 0.2 -4.93" horiz-adv-x="15.41"/>
<glyph unicode="." glyph-name="." d="M 3.35 1.91 C 3.35 2.74 2.68 3.41 1.85 3.41 C 1.02 3.41 0.35 2.74 0.35 1.91 C 0.35 1.08 1.02 0.41 1.85 0.41 C 2.68 0.41 3.35 1.08 3.35 1.91" horiz-adv-x="11.49"/>
<glyph unicode=":" glyph-name=":" d="M 3.49 9.39 C 4.32 9.39 4.99 10.06 4.99 10.89 C 4.99 11.72 4.32 12.39 3.49 12.39 C 2.66 12.39 1.99 11.72 1.99 10.89 C 1.99 10.06 2.66 9.39 3.49 9.39 M 3.49 25.39 C 4.32 25.39 4.99 26.06 4.99 26.89 C 4.99 27.72 4.32 28.39 3.49 28.39 C 2.66 28.39 1.99 27.72 1.99 26.89 C 1.99 26.06 2.66 25.39 3.49 25.39" horiz-adv-x="13.39"/>
<glyph unicode="?" glyph-name="?" d="M 20.6 1.91 C 20.6 2.74 19.93 3.41 19.1 3.41 C 18.27 3.41 17.6 2.74 17.6 1.91 C 17.6 1.08 18.27 0.41 19.1 0.41 C 19.93 0.41 20.6 1.08 20.6 1.91 M 0.35 41.66 C 0.35 52.02 8.74 60.41 19.1 60.41 C 29.46 60.41 37.85 52.02 37.85 41.66 C 37.85 31.31 29.46 22.91 19.1 22.91 L 19.1 13.35" horiz-adv-x="45.53"/>
<glyph unicode="O" glyph-name="O" d="M 60.35 30.41 C 60.35 22.45 57.19 14.82 51.56 9.2 C 45.94 3.57 38.31 0.41 30.35 0.41 C 22.39 0.41 14.76 3.57 9.14 9.2 C 3.51 14.82 0.35 22.45 0.35 30.41 C 0.35 38.37 3.51 46 9.14 51.62 C 14.76 57.25 22.39 60.41 30.35 60.41 C 38.31 60.41 45.94 57.25 51.56 51.62 C 57.19 46 60.35 38.37 60.35 30.41" horiz-adv-x="68.53"/>
<glyph unicode="@" glyph-name="@" d="M 47.12 -9.47 C 45.53 -10.54 43.82 -11.47 42.03 -12.23 C 38.44 -13.75 34.49 -14.59 30.35 -14.59 C 13.78 -14.59 0.35 -1.16 0.35 15.41 C 0.35 31.98 13.78 45.41 30.35 45.41 C 46.92 45.41 60.35 31.98 60.35 15.41 C 60.35 11.27 59.51 7.32 57.99 3.73 C 55.13 -2.64 44.96 -0.2 45.35 7.91 L 45.35 15.41 L 45.35 30.41 M 45.35 15.41 C 45.35 23.7 38.63 30.41 30.35 30.41 C 22.07 30.41 15.35 23.7 15.35 15.41 C 15.35 7.13 22.07 0.41 30.35 0.41 C 38.63 0.41 45.35 7.13 45.35 15.41 Z" horiz-adv-x="67.5"/>
<glyph unicode="-" glyph-name="-" d="M -0.15 17.16 L 22.35 17.16" horiz-adv-x="30.2"/>
<glyph unicode="*" glyph-name="*" d="M 21.02 26.19 L 1.53 37.44 M 21.02 37.44 L 1.53 26.19 M 11.27 43.07 L 11.27 20.57" horiz-adv-x="28.99"/>
<glyph unicode=")" glyph-name=")" d="M -3.95 64.12 C 0.83 62.1 5.14 59.17 8.76 55.55 C 12.38 51.93 15.31 47.62 17.33 42.84 C 19.36 38.05 20.48 32.79 20.48 27.27 C 20.48 21.74 19.36 16.48 17.33 11.7 C 15.31 6.91 12.38 2.6 8.76 -1.02 C 5.14 -4.64 0.83 -7.57 -3.95 -9.59" horiz-adv-x="28.5"/>
<glyph unicode="(" glyph-name="(" d="M 24.78 -9.59 C 19.99 -7.57 15.68 -4.64 12.07 -1.02 C 8.45 2.6 5.52 6.91 3.49 11.7 C 1.47 16.48 0.35 21.74 0.35 27.27 C 0.35 32.79 1.47 38.05 3.49 42.84 C 5.52 47.62 8.45 51.93 12.07 55.55 C 15.68 59.17 19.99 62.1 24.78 64.12" horiz-adv-x="24.96"/>
<glyph unicode="&quot;" glyph-name="&quot;" d="M 0.42 52.52 L 0.35 37.41 M 7.85 52.65 L 7.9 37.53" horiz-adv-x="14.67"/>
<glyph unicode="#" glyph-name="#" d="M -0.21 23.08 L 37.42 23.08 M -0.12 38.16 L 37.42 38.16 M 29.88 60.66 L 22.19 0.56 M 14.69 60.59 L 7.38 0.66" horiz-adv-x="45.1"/>
<glyph unicode="$" glyph-name="$" d="M 16.23 45.54 L 15.99 -10.32 M 3.97 19.28 C 1.72 17.28 0.35 14.67 0.35 11.81 C 0.35 5.52 6.99 0.41 15.19 0.41 C 23.39 0.41 30.03 5.52 30.03 11.81 C 30.25 26.99 3.39 19.73 2.82 30.06 C 2.82 33.84 8.36 36.9 15.19 36.9 C 22.02 36.9 27.56 33.84 27.56 30.06" horiz-adv-x="37.74"/>
<glyph unicode="%" glyph-name="%" d="M 37.56 52.56 L 0.01 0.06 M 37.56 7.56 C 37.56 5.57 36.78 3.66 35.4 2.26 C 34.02 0.85 32.15 0.06 30.2 0.06 C 28.25 0.06 26.38 0.85 24.99 2.26 C 23.61 3.66 22.84 5.57 22.84 7.56 C 22.84 11.7 26.13 15.06 30.2 15.06 C 34.26 15.06 37.56 11.7 37.56 7.56 M 14.88 45.06 C 14.88 43.07 14.1 41.16 12.72 39.76 C 11.34 38.35 9.47 37.56 7.51 37.56 C 5.56 37.56 3.69 38.35 2.31 39.76 C 0.93 41.16 0.15 43.07 0.15 45.06 C 0.15 49.2 3.45 52.56 7.51 52.56 C 11.58 52.56 14.88 49.2 14.88 45.06" horiz-adv-x="45.34"/>
<glyph unicode="&amp;" glyph-name="&amp;" d="M 44.7 0.66 C 33.13 8.4 6.56 29.31 6.31 40.68 C 6.31 45.89 9.99 50.12 18.68 50.12 C 27.36 50.12 31.05 45.89 31.05 40.68 C 30.33 26.44 -0.47 36.45 -0.19 15.53 C -0.19 6.84 8.26 -0.2 18.68 -0.2 C 29.1 -0.2 37.54 6.84 37.54 15.53 L 37.54 22.48" horiz-adv-x="52.66"/>
<glyph unicode="'" glyph-name="'" d="M -0.14 52.56 L 0 37.56" horiz-adv-x="7.69"/>
<glyph unicode="/" glyph-name="/" d="M 22.31 52.48 L 0 -7.44" horiz-adv-x="23.98"/>
<glyph unicode=";" glyph-name=";" d="M 3.64 9.91 L 0.61 -6.17 M 3.64 25.91 C 4.47 25.91 5.14 26.58 5.14 27.41 C 5.14 28.24 4.47 28.91 3.64 28.91 C 2.81 28.91 2.14 28.24 2.14 27.41 C 2.14 26.58 2.81 25.91 3.64 25.91" horiz-adv-x="14.38"/>
<glyph unicode="&#x3c;" glyph-name="&#x3c;" d="M 23.13 34.3 L 0.88 19.9 L 22.8 4.8" horiz-adv-x="30.53"/>
<glyph unicode="&#x3e;" glyph-name="&#x3e;" d="M 0.12 34.3 L 22.37 19.9 L 0.45 4.8" horiz-adv-x="31.07"/>
<glyph unicode="=" glyph-name="=" d="M 0.52 15.9 L 22.93 15.9 M 0.52 23.4 L 22.93 23.4" horiz-adv-x="31.07"/>
<glyph unicode="[" glyph-name="[" d="M 14.34 71.45 L -0.15 71.24 L -0.05 -7.54 L 13.6 -7.07" horiz-adv-x="15.03"/>
<glyph unicode="]" glyph-name="]" d="M -0.14 71.45 L 14.35 71.24 L 14.25 -7.54 L 0.6 -7.07" horiz-adv-x="21.87"/>
<glyph unicode="\" glyph-name="\" d="M 1.32 63.49 L 17.25 -4.2" horiz-adv-x="18.84"/>
<glyph unicode="^" glyph-name="^" d="M 0.32 37.34 L 15.12 44.84 L 30.32 37.34" horiz-adv-x="37.95"/>
<glyph unicode="_" glyph-name="_" d="M 0 0.46 L 30.65 0.06" horiz-adv-x="38.44"/>
<glyph unicode="`" glyph-name="`" d="M 0.5 52.65 L 8 37.98" horiz-adv-x="15.41"/>
<glyph unicode="&#xdf;" glyph-name="&#xdf;" d="M 4.49 4.69 C 5.85 3.33 7.46 2.24 9.26 1.48 C 11.05 0.72 13.03 0.3 15.1 0.3 C 23.38 0.3 30.1 7.01 30.1 15.3 C 30.1 23.58 23.38 30.3 15.1 30.3 L 13.27 30.3 C 20.17 30.3 25.77 35.9 25.77 42.8 C 25.77 49.7 20.17 55.3 13.27 55.3 C 6.36 55.3 0.77 49.7 0.77 42.8 L 0.77 -11.57" horiz-adv-x="38.0"/>
<glyph unicode="~" glyph-name="~" d="M 0.32 22.3 C 0.32 22.3 2.61 24.89 5.95 24.81 C 10.12 24.7 13.4 19.76 17.2 19.81 C 21.03 19.85 22.82 22.3 22.82 22.3" horiz-adv-x="30.03"/>
<glyph unicode="&#xe4;" glyph-name="&#xe4;" d="M 22.26 41.14 C 22.26 41.96 21.59 42.64 20.76 42.64 C 19.94 42.64 19.26 41.96 19.26 41.14 C 19.26 40.31 19.94 39.64 20.76 39.64 C 21.59 39.64 22.26 40.31 22.26 41.14 M 12.26 41.14 C 12.26 41.96 11.59 42.64 10.76 42.64 C 9.94 42.64 9.26 41.96 9.26 41.14 C 9.26 40.31 9.94 39.64 10.76 39.64 C 11.59 39.64 12.26 40.31 12.26 41.14 M 30.76 15.24 L 30.76 0.24 M 30.76 15.24 C 30.76 6.95 24.05 0.24 15.76 0.24 C 7.48 0.24 0.76 6.95 0.76 15.24 C 0.76 23.52 7.48 30.24 15.76 30.24 C 24.05 30.24 30.76 23.52 30.76 15.24 Z" horiz-adv-x="38.44"/>
<glyph unicode="&#xf1;" glyph-name="&#xf1;" d="M 4.5 39.27 C 4.5 39.27 6.79 41.85 10.13 41.77 C 14.3 41.66 17.57 36.73 21.38 36.77 C 25.21 36.81 27 39.27 27 39.27 M 0.76 0.24 L 0.76 30.24 M 0.76 15.24 C 0.76 23.52 7.48 30.24 15.76 30.24 C 24.05 30.24 30.77 23.52 30.77 15.24 L 30.77 0.24" horiz-adv-x="37.69"/>
<glyph unicode="|" glyph-name="|" d="M 0.28 69.89 L 0.41 -10.11" horiz-adv-x="60.0"/>
<glyph unicode="&#xf6;" glyph-name="&#xf6;" d="M 22.26 41.14 C 22.26 41.96 21.59 42.64 20.76 42.64 C 19.94 42.64 19.26 41.96 19.26 41.14 C 19.26 40.31 19.94 39.64 20.76 39.64 C 21.59 39.64 22.26 40.31 22.26 41.14 M 12.26 41.14 C 12.26 41.96 11.59 42.64 10.76 42.64 C 9.94 42.64 9.26 41.96 9.26 41.14 C 9.26 40.31 9.94 39.64 10.76 39.64 C 11.59 39.64 12.26 40.31 12.26 41.14 M 30.76 15.24 C 30.76 11.26 29.18 7.45 26.37 4.63 C 23.56 1.82 19.74 0.24 15.76 0.24 C 11.79 0.24 7.97 1.82 5.16 4.63 C 2.35 7.45 0.76 11.26 0.76 15.24 C 0.76 19.22 2.35 23.03 5.16 25.85 C 7.97 28.66 11.79 30.24 15.76 30.24 C 19.74 30.24 23.56 28.66 26.37 25.85 C 29.18 23.03 30.76 19.22 30.76 15.24" horiz-adv-x="37.27"/>
<glyph unicode="&#xfc;" glyph-name="&#xfc;" d="M 22.26 41.14 C 22.26 41.96 21.6 42.64 20.76 42.64 C 19.94 42.64 19.26 41.96 19.26 41.14 C 19.26 40.31 19.94 39.64 20.76 39.64 C 21.6 39.64 22.26 40.31 22.26 41.14 M 12.26 41.14 C 12.26 41.96 11.6 42.64 10.76 42.64 C 9.94 42.64 9.26 41.96 9.26 41.14 C 9.26 40.31 9.94 39.64 10.76 39.64 C 11.6 39.64 12.26 40.31 12.26 41.14 M 30.77 30.24 L 30.77 0.24 M 30.77 15.24 C 30.77 6.95 24.05 0.24 15.77 0.24 C 7.48 0.24 0.76 6.95 0.76 15.24 L 0.76 30.24" horiz-adv-x="38.0"/>
<glyph unicode="&#xd6;" glyph-name="&#xd6;" d="M 37.26 66.24 C 37.26 67.07 36.6 67.74 35.76 67.74 C 34.94 67.74 34.26 67.07 34.26 66.24 C 34.26 65.41 34.94 64.74 35.76 64.74 C 36.6 64.74 37.26 65.41 37.26 66.24 M 27.26 66.24 C 27.26 67.07 26.6 67.74 25.76 67.74 C 24.94 67.74 24.26 67.07 24.26 66.24 C 24.26 65.41 24.94 64.74 25.76 64.74 C 26.6 64.74 27.26 65.41 27.26 66.24 M 60.76 30.24 C 60.76 13.67 47.33 0.24 30.76 0.24 C 14.2 0.24 0.76 13.67 0.76 30.24 C 0.76 46.81 14.2 60.24 30.76 60.24 C 47.33 60.24 60.76 46.81 60.76 30.24" horiz-adv-x="67.33"/>
<glyph unicode="&#xdc;" glyph-name="&#xdc;" d="M 29.76 66.24 C 29.76 67.07 29.1 67.74 28.26 67.74 C 27.44 67.74 26.76 67.07 26.76 66.24 C 26.76 65.41 27.44 64.74 28.26 64.74 C 29.1 64.74 29.76 65.41 29.76 66.24 M 19.76 66.24 C 19.76 67.07 19.1 67.74 18.26 67.74 C 17.44 67.74 16.76 67.07 16.76 66.24 C 16.76 65.41 17.44 64.74 18.26 64.74 C 19.1 64.74 19.76 65.41 19.76 66.24 M 0.76 60.49 L 0.76 22.74 C 0.76 10.31 10.84 0.24 23.26 0.24 C 35.69 0.24 45.76 10.31 45.76 22.74 L 45.76 60.49" horiz-adv-x="52.67"/>
<glyph unicode="E" glyph-name="E" d="M 45.35 0.35 L 11.6 0.35 C 5.39 0.35 0.35 5.39 0.35 11.6 L 0.35 49.1 C 0.35 55.31 5.39 60.35 11.6 60.35 L 45.35 60.35 M 0.35 37.85 L 22.85 37.85" horiz-adv-x="53.14"/>
<glyph unicode="B" glyph-name="B" d="M 41.6 19.1 C 41.6 8.75 33.2 0.24 22.85 0.35 L 11.6 0.35 C 5.39 0.35 0.35 5.89 0.35 12.1 L 0.35 49.6 C 0.35 55.82 5.39 60.85 11.6 60.85 L 22.85 60.85 C 29.06 60.92 34.1 55.81 34.1 49.6 C 34.1 43.39 29.06 38.35 22.85 38.35 L 0.35 38.1 M 22.85 38.23 C 33.21 38.23 41.6 29.46 41.6 19.1" horiz-adv-x="49.43"/>
<glyph unicode="L" glyph-name="L" d="M 45.35 0.35 L 11.6 0.35 C 5.39 0.35 0.35 5.39 0.35 11.6 L 0.35 60.35" horiz-adv-x="48.05"/>
<glyph unicode="D" glyph-name="D" d="M 11.6 0.35 C 5.39 0.35 0.35 5.89 0.35 12.1 L 0.35 49.6 C 0.35 55.81 5.39 60.35 11.6 60.35 L 15.35 60.35 C 31.92 60.35 45.35 46.92 45.35 30.35 C 45.35 13.78 31.92 0.35 15.35 0.35 Z" horiz-adv-x="54.12"/>
<glyph unicode="N" glyph-name="N" d="M 0.35 60.22 L 0.35 0.22 M 0.35 37.6 C 0.35 50.03 10.42 60.1 22.85 60.1 C 35.28 60.1 45.35 50.03 45.35 37.6 L 45.35 -0.15" horiz-adv-x="54.98"/>
<glyph unicode="M" glyph-name="M" d="M 45.35 37.6 C 45.35 50.03 55.42 60.1 67.85 60.1 C 80.28 60.1 90.35 50.03 90.35 37.6 L 90.35 -0.15 M 0.35 60.23 L 0.35 0.23 M 0.35 37.6 C 0.35 50.03 10.42 60.1 22.85 60.1 C 35.28 60.1 45.35 50.03 45.35 37.6 L 45.35 -0.15" horiz-adv-x="99.85"/>
<glyph unicode="P" glyph-name="P" d="M 0.35 0.35 L 0.35 49.35 C 0.35 55.56 5.39 60.48 11.6 60.48 L 22.85 60.6 C 33.2 60.72 41.6 52.21 41.6 41.85 C 41.6 31.49 33.21 23.1 22.85 23.1 L 0.35 23.1" horiz-adv-x="49.96"/>
<glyph unicode="R" glyph-name="R" d="M 0.35 0.35 L 0.35 49.35 C 0.35 55.57 5.39 60.48 11.6 60.48 L 22.85 60.6 C 33.2 60.72 41.6 52.21 41.6 41.85 C 41.6 31.5 33.21 23.1 22.85 23.1 L 0.35 23.1 M 22.98 23.1 L 46.18 0.35" horiz-adv-x="49.35"/>
<glyph unicode="W" glyph-name="W" d="M 30.35 15.35 C 30.35 7.07 37.07 0.35 45.35 0.35 C 53.63 0.35 60.35 7.07 60.35 15.35 L 60.35 60.44 M 30.35 60.44 L 30.35 15.35 C 30.35 7.07 23.63 0.35 15.35 0.35 C 7.07 0.35 0.35 7.07 0.35 15.35 L 0.35 60.44" horiz-adv-x="68.23"/>
<glyph unicode="Y" glyph-name="Y" d="M 0.35 60.35 L 0.35 45.35 C 0.35 32.92 10.42 22.85 22.85 22.85 C 35.28 22.85 45.35 32.92 45.35 45.35 L 45.35 60.35 M 0.35 22.85 C 0.35 10.42 10.42 0.35 22.85 0.35 C 35.28 0.35 45.35 10.42 45.35 22.85 L 45.35 60.6" horiz-adv-x="53.04"/>
<glyph unicode="&#xc5;" glyph-name="&#xc5;" d="M 27.85 71.6 C 27.85 68.84 25.61 66.6 22.85 66.6 C 20.09 66.6 17.85 68.84 17.85 71.6 C 17.85 74.36 20.09 76.6 22.85 76.6 C 25.61 76.6 27.85 74.36 27.85 71.6 Z M 0.35 22.85 L 45.35 22.85 M 0.35 0.35 L 0.35 38.1 C 0.35 50.53 10.42 60.6 22.85 60.6 C 35.28 60.6 45.35 50.53 45.35 38.1 L 45.35 0.35" horiz-adv-x="53.26"/>
<glyph unicode="&#xc6;" glyph-name="&#xc6;" d="M 0.35 22.6 L 45.35 22.6 M 0.35 0.1 L 0.35 37.85 C 0.35 50.28 10.92 60.35 23.34 60.35 L 34.59 60.35 L 68.34 60.35 M 68.34 0.35 L 34.59 0.35 C 28.38 0.35 23.34 5.39 23.34 11.6 L 23.34 60.35" horiz-adv-x="82.2"/>
<glyph unicode="&#xc4;" glyph-name="&#xc4;" d="M 0.35 22.85 L 45.35 22.85 M 0.35 0.35 L 0.35 38.1 C 0.35 50.53 10.42 60.6 22.85 60.6 C 35.28 60.6 45.35 50.53 45.35 38.1 L 45.35 0.35 M 29.76 66.24 C 29.76 67.07 29.1 67.74 28.26 67.74 C 27.44 67.74 26.76 67.07 26.76 66.24 C 26.76 65.41 27.44 64.74 28.26 64.74 C 29.1 64.74 29.76 65.41 29.76 66.24 M 19.76 66.24 C 19.76 67.07 19.1 67.74 18.26 67.74 C 17.44 67.74 16.76 67.07 16.76 66.24 C 16.76 65.41 17.44 64.74 18.26 64.74 C 19.1 64.74 19.76 65.41 19.76 66.24" horiz-adv-x="53.4"/>
<glyph unicode="I" glyph-name="I" d="M 4.35 59.85 L 4.35 -0.15" horiz-adv-x="15.41"/>
<glyph unicode="&#xd1;" glyph-name="&#xd1;" d="M 0.35 60.23 L 0.35 0.23 M 0.35 37.6 C 0.35 50.03 10.42 60.1 22.85 60.1 C 35.28 60.1 45.35 50.03 45.35 37.6 L 45.35 -0.15 M 12 66.4 C 12 66.4 14.29 68.98 17.62 68.9 C 21.8 68.79 25.07 63.86 28.88 63.9 C 32.71 63.94 34.5 66.4 34.5 66.4" horiz-adv-x="52.5"/>
</font>
</defs>
</svg>
