<?xml version="1.0" encoding="utf-8"?>
<svg xmlns="http://www.w3.org/2000/svg" viewBox="0 0 30 30" fill="#000000"><path style="line-height:normal;text-indent:0;text-align:start;text-decoration-line:none;text-decoration-style:solid;text-decoration-color:#000;text-transform:none;block-progression:tb;isolation:auto;mix-blend-mode:normal" d="M 14.414062 4 C 13.811063 4.015 13.277641 4.3892187 13.056641 4.9492188 L 5.5332031 24 L 5 24 A 1.0001 1.0001 0 1 0 5 26 L 9 26 A 1.0001 1.0001 0 1 0 9 24 L 8.7578125 24 L 10.349609 19.970703 C 10.399609 19.978703 10.446 20 10.5 20 L 14.523438 20 C 14.775438 19.289 15.104578 18.616 15.517578 18 L 11.126953 18 L 14.542969 9.3515625 L 17.494141 15.892578 C 18.284141 15.279578 19.176531 14.794703 20.144531 14.470703 L 15.818359 4.8828125 C 15.569359 4.3328125 15.016062 4.001 14.414062 4 z M 23 16 C 19.134 16 16 19.134 16 23 C 16 26.866 19.134 30 23 30 C 26.866 30 30 26.866 30 23 C 30 19.134 26.866 16 23 16 z M 23 19 C 23.552 19 24 19.447 24 20 L 24 22 L 26 22 C 26.552 22 27 22.447 27 23 C 27 23.553 26.552 24 26 24 L 24 24 L 24 26 C 24 26.553 23.552 27 23 27 C 22.448 27 22 26.553 22 26 L 22 24 L 20 24 C 19.448 24 19 23.553 19 23 C 19 22.447 19.448 22 20 22 L 22 22 L 22 20 C 22 19.447 22.448 19 23 19 z" font-weight="400" font-family="sans-serif" white-space="normal" overflow="visible" fill="#000000"/></svg>
