<?xml version="1.0" encoding="UTF-8"?>
<svg xmlns="http://www.w3.org/2000/svg" xmlns:xlink="http://www.w3.org/1999/xlink" viewBox="0 0 50 50" version="1.1" fill="#000000"><g id="surface1" fill="#000000"><path style=" " d="M 17.65625 10 C 17.308594 10.070313 17.023438 10.320313 16.90625 10.65625 L 4.125 43.5 C 4.011719 43.804688 4.058594 44.148438 4.242188 44.414063 C 4.429688 44.683594 4.734375 44.84375 5.0625 44.84375 L 9.5 44.84375 C 9.917969 44.84375 10.292969 44.582031 10.4375 44.1875 L 13.875 34.96875 L 26.40625 34.96875 L 29.75 44.1875 C 29.894531 44.582031 30.269531 44.84375 30.6875 44.84375 L 35.5 44.84375 C 35.828125 44.84375 36.132813 44.683594 36.320313 44.414063 C 36.503906 44.148438 36.550781 43.804688 36.4375 43.5 L 23.59375 10.65625 C 23.449219 10.261719 23.074219 10 22.65625 10 L 17.84375 10 C 17.8125 10 17.78125 10 17.75 10 C 17.71875 10 17.6875 10 17.65625 10 Z M 18.53125 12 L 22 12 L 34.03125 42.84375 L 31.375 42.84375 L 28.03125 33.625 C 27.886719 33.230469 27.511719 32.96875 27.09375 32.96875 L 13.1875 32.96875 C 12.769531 32.96875 12.394531 33.230469 12.25 33.625 L 8.8125 42.84375 L 6.53125 42.84375 Z M 19.9375 13.96875 C 19.589844 14.039063 19.304688 14.289063 19.1875 14.625 L 13.625 29.9375 C 13.511719 30.242188 13.558594 30.585938 13.742188 30.851563 C 13.929688 31.121094 14.234375 31.28125 14.5625 31.28125 L 25.71875 31.28125 C 26.046875 31.28125 26.351563 31.121094 26.539063 30.851563 C 26.722656 30.585938 26.769531 30.242188 26.65625 29.9375 L 21.1875 14.625 C 21.039063 14.21875 20.648438 13.957031 20.21875 13.96875 L 20.15625 13.96875 C 20.082031 13.960938 20.011719 13.960938 19.9375 13.96875 Z M 20.1875 17.8125 L 24.28125 29.28125 L 16 29.28125 Z M 36.8125 24 C 36.261719 24.050781 35.855469 24.542969 35.90625 25.09375 C 35.957031 25.644531 36.449219 26.050781 37 26 L 47 26 C 47.359375 26.003906 47.695313 25.816406 47.878906 25.503906 C 48.058594 25.191406 48.058594 24.808594 47.878906 24.496094 C 47.695313 24.183594 47.359375 23.996094 47 24 L 37 24 C 36.96875 24 36.9375 24 36.90625 24 C 36.875 24 36.84375 24 36.8125 24 Z " fill="#000000"/></g></svg>
