<?xml version="1.0" encoding="UTF-8"?>
<svg xmlns="http://www.w3.org/2000/svg" xmlns:xlink="http://www.w3.org/1999/xlink" viewBox="0 0 50 50" version="1.1" fill="#000000"><g id="surface1" fill="#000000"><path style=" " d="M 18.34375 4.28125 C 17.960938 4.320313 17.632813 4.574219 17.5 4.9375 L 2.46875 43.5 C 2.355469 43.804688 2.402344 44.148438 2.585938 44.414063 C 2.773438 44.683594 3.078125 44.84375 3.40625 44.84375 L 8.65625 44.84375 C 9.074219 44.84375 9.449219 44.582031 9.59375 44.1875 L 13.65625 33.25 L 28.59375 33.25 L 32.5625 44.1875 C 32.707031 44.582031 33.082031 44.84375 33.5 44.84375 L 39.15625 44.84375 C 39.484375 44.84375 39.789063 44.683594 39.976563 44.414063 C 40.160156 44.148438 40.207031 43.804688 40.09375 43.5 L 25.03125 4.9375 C 24.886719 4.542969 24.511719 4.28125 24.09375 4.28125 L 18.4375 4.28125 C 18.40625 4.28125 18.375 4.28125 18.34375 4.28125 Z M 19.09375 6.28125 L 23.40625 6.28125 L 37.6875 42.84375 L 34.1875 42.84375 L 30.21875 31.90625 C 30.074219 31.511719 29.699219 31.25 29.28125 31.25 L 12.96875 31.25 C 12.558594 31.246094 12.183594 31.492188 12.03125 31.875 L 7.96875 42.84375 L 4.875 42.84375 Z M 20.9375 8.9375 C 20.589844 9.007813 20.304688 9.257813 20.1875 9.59375 L 13.65625 27.5625 C 13.542969 27.867188 13.589844 28.210938 13.773438 28.476563 C 13.960938 28.746094 14.265625 28.90625 14.59375 28.90625 L 27.65625 28.90625 C 27.976563 28.902344 28.273438 28.746094 28.457031 28.488281 C 28.644531 28.226563 28.691406 27.894531 28.59375 27.59375 L 22.1875 9.59375 C 22.039063 9.1875 21.648438 8.925781 21.21875 8.9375 L 21.125 8.9375 C 21.09375 8.9375 21.0625 8.9375 21.03125 8.9375 C 21 8.9375 20.96875 8.9375 20.9375 8.9375 Z M 21.15625 12.75 L 26.25 26.90625 L 16.03125 26.90625 Z M 41.90625 18.96875 C 41.863281 18.976563 41.820313 18.988281 41.78125 19 C 41.316406 19.105469 40.988281 19.523438 41 20 L 41 24 L 37 24 C 36.96875 24 36.9375 24 36.90625 24 C 36.355469 24.027344 35.925781 24.496094 35.953125 25.046875 C 35.980469 25.597656 36.449219 26.027344 37 26 L 41 26 L 41 30 C 40.996094 30.359375 41.183594 30.695313 41.496094 30.878906 C 41.808594 31.058594 42.191406 31.058594 42.503906 30.878906 C 42.816406 30.695313 43.003906 30.359375 43 30 L 43 26 L 47 26 C 47.359375 26.003906 47.695313 25.816406 47.878906 25.503906 C 48.058594 25.191406 48.058594 24.808594 47.878906 24.496094 C 47.695313 24.183594 47.359375 23.996094 47 24 L 43 24 L 43 20 C 43.011719 19.710938 42.894531 19.433594 42.6875 19.238281 C 42.476563 19.039063 42.191406 18.941406 41.90625 18.96875 Z " fill="#000000"/></g></svg>
