<?xml version="1.0" encoding="UTF-8"?>
<svg xmlns="http://www.w3.org/2000/svg" xmlns:xlink="http://www.w3.org/1999/xlink" viewBox="0 0 50 50" version="1.1" fill="#000000"><g id="surface1" fill="#000000"><path style=" " d="M 25 3.648438 L 19.296875 9.289063 C 19.035156 9.539063 18.925781 9.910156 19.015625 10.261719 C 19.105469 10.613281 19.378906 10.886719 19.726563 10.980469 C 20.078125 11.074219 20.449219 10.96875 20.703125 10.710938 L 24 7.453125 L 24 18 C 23.996094 18.359375 24.183594 18.695313 24.496094 18.878906 C 24.808594 19.058594 25.191406 19.058594 25.503906 18.878906 C 25.816406 18.695313 26.003906 18.359375 26 18 L 26 7.453125 L 29.296875 10.710938 C 29.550781 10.96875 29.921875 11.074219 30.273438 10.980469 C 30.621094 10.886719 30.894531 10.613281 30.984375 10.261719 C 31.074219 9.910156 30.964844 9.539063 30.703125 9.289063 Z M 9.945313 19.015625 C 9.6875 19.027344 9.441406 19.136719 9.261719 19.324219 L 3.625 25.027344 L 9.261719 30.730469 C 9.511719 30.992188 9.882813 31.101563 10.234375 31.011719 C 10.585938 30.921875 10.859375 30.648438 10.953125 30.300781 C 11.046875 29.949219 10.941406 29.578125 10.683594 29.324219 L 7.421875 26.027344 L 17.972656 26.027344 C 18.332031 26.03125 18.667969 25.84375 18.851563 25.53125 C 19.03125 25.21875 19.03125 24.835938 18.851563 24.523438 C 18.667969 24.210938 18.332031 24.023438 17.972656 24.027344 L 7.421875 24.027344 L 10.683594 20.730469 C 10.976563 20.441406 11.066406 20 10.902344 19.621094 C 10.738281 19.242188 10.359375 19.003906 9.945313 19.015625 Z M 40.023438 19.015625 C 39.617188 19.015625 39.25 19.261719 39.09375 19.636719 C 38.9375 20.011719 39.027344 20.445313 39.316406 20.730469 L 42.578125 24.027344 L 32.027344 24.027344 C 31.667969 24.023438 31.332031 24.210938 31.148438 24.523438 C 30.96875 24.835938 30.96875 25.21875 31.148438 25.53125 C 31.332031 25.84375 31.667969 26.03125 32.027344 26.027344 L 42.578125 26.027344 L 39.316406 29.324219 C 39.058594 29.578125 38.953125 29.949219 39.046875 30.300781 C 39.140625 30.648438 39.414063 30.921875 39.765625 31.011719 C 40.117188 31.101563 40.488281 30.992188 40.738281 30.730469 L 46.378906 25.027344 L 40.738281 19.324219 C 40.550781 19.128906 40.292969 19.019531 40.023438 19.015625 Z M 24.984375 31.042969 C 24.433594 31.050781 23.992188 31.503906 24 32.058594 L 24 42.605469 L 20.703125 39.34375 C 20.515625 39.152344 20.253906 39.046875 19.984375 39.046875 C 19.578125 39.050781 19.210938 39.296875 19.0625 39.675781 C 18.910156 40.054688 19.003906 40.484375 19.296875 40.765625 L 25 46.40625 L 30.703125 40.765625 C 30.964844 40.519531 31.074219 40.144531 30.984375 39.796875 C 30.894531 39.445313 30.621094 39.171875 30.273438 39.078125 C 29.921875 38.984375 29.550781 39.085938 29.296875 39.34375 L 26 42.605469 L 26 32.058594 C 26.003906 31.785156 25.898438 31.527344 25.707031 31.335938 C 25.515625 31.144531 25.253906 31.039063 24.984375 31.042969 Z " fill="#000000"/></g></svg>
