<?xml version="1.0" encoding="utf-8"?>
<svg xmlns="http://www.w3.org/2000/svg" viewBox="0 0 50 50" fill="#000000"><path d="M 22.443359 2 L 2 22.443359 L 27.556641 48 L 48 27.556641 L 22.443359 2 z M 32.019531 2.9980469 A 1.0001 1.0001 0 0 0 31.783203 4.9765625 C 40.394512 6.8901867 43.199496 12.750764 45.050781 18.316406 A 1.0005646 1.0005646 0 0 0 47 18 L 47 12 C 47 11.653 46.819391 11.331438 46.525391 11.148438 C 46.364391 11.049438 46.183 11 46 11 C 45.847 11 45.693734 11.035469 45.552734 11.105469 L 44.316406 11.722656 C 42.03558 7.8680496 38.441732 4.4067565 32.216797 3.0234375 A 1.0001 1.0001 0 0 0 32.019531 2.9980469 z M 24.792969 16.460938 L 26.205078 17.873047 L 22.746094 21.333984 L 31.066406 29.654297 L 29.652344 31.068359 L 21.332031 22.746094 L 17.873047 26.207031 L 16.458984 24.792969 L 24.792969 16.460938 z M 3.9589844 30.986328 A 1.0001 1.0001 0 0 0 3 32.083984 L 3 38 C 3 38.347 3.1806094 38.668563 3.4746094 38.851562 C 3.6356094 38.950563 3.817 39 4 39 C 4.153 39 4.3062656 38.964531 4.4472656 38.894531 L 5.6835938 38.277344 C 7.9644204 42.13195 11.558268 45.593244 17.783203 46.976562 A 1.0003371 1.0003371 0 1 0 18.216797 45.023438 C 9.6054877 43.109813 6.8005042 37.249236 4.9492188 31.683594 A 1.0001 1.0001 0 0 0 3.9589844 30.986328 z" fill="#000000"/></svg>
